<mxfile host="app.diagrams.net" agent="Mozilla/5.0 (Windows NT 10.0; Win64; x64) AppleWebKit/537.36 (KHTML, like Gecko) Chrome/133.0.0.0 Safari/537.36 OPR/118.0.0.0" version="27.0.9">
  <diagram name="PÃ¡gina-1" id="Kao_6ihjuICuSADlMh1b">
    <mxGraphModel grid="1" page="1" gridSize="10" guides="1" tooltips="1" connect="1" arrows="1" fold="1" pageScale="1" pageWidth="4681" pageHeight="3300" math="0" shadow="0">
      <root>
        <mxCell id="0" />
        <mxCell id="1" parent="0" />
        <mxCell id="kNOtVhge8NMvpJqVgjMI-1" value="Nexpay" style="swimlane;fontStyle=1;align=center;verticalAlign=top;childLayout=stackLayout;horizontal=1;startSize=26;horizontalStack=0;resizeParent=1;resizeParentMax=0;resizeLast=0;collapsible=1;marginBottom=0;whiteSpace=wrap;html=1;" vertex="1" parent="1">
          <mxGeometry x="2770" y="540" width="250" height="320" as="geometry" />
        </mxCell>
        <mxCell id="kNOtVhge8NMvpJqVgjMI-2" value="&lt;div&gt;- users: SimpleList&amp;lt;User&amp;gt;&lt;/div&gt;&lt;div&gt;- accounts: SimpleList&amp;lt;Account&amp;gt;&lt;/div&gt;&lt;div&gt;- transactions: DoubleLinkedList&amp;lt;Transaction&amp;gt;&lt;/div&gt;&lt;div&gt;- wallets: SimpleList&amp;lt;Wallet&amp;gt;&lt;/div&gt;" style="text;strokeColor=none;fillColor=none;align=left;verticalAlign=top;spacingLeft=4;spacingRight=4;overflow=hidden;rotatable=0;points=[[0,0.5],[1,0.5]];portConstraint=eastwest;whiteSpace=wrap;html=1;" vertex="1" parent="kNOtVhge8NMvpJqVgjMI-1">
          <mxGeometry y="26" width="250" height="84" as="geometry" />
        </mxCell>
        <mxCell id="kNOtVhge8NMvpJqVgjMI-3" value="" style="line;strokeWidth=1;fillColor=none;align=left;verticalAlign=middle;spacingTop=-1;spacingLeft=3;spacingRight=3;rotatable=0;labelPosition=right;points=[];portConstraint=eastwest;strokeColor=inherit;" vertex="1" parent="kNOtVhge8NMvpJqVgjMI-1">
          <mxGeometry y="110" width="250" height="8" as="geometry" />
        </mxCell>
        <mxCell id="kNOtVhge8NMvpJqVgjMI-4" value="&lt;div&gt;+ getInstance(): Nexpay&lt;/div&gt;&lt;div&gt;+ getUsers(): SimpleList&amp;lt;User&amp;gt;&lt;/div&gt;&lt;div&gt;+ getAccounts(): SimpleList&amp;lt;Account&amp;gt;&lt;/div&gt;&lt;div&gt;+ getTransactions(): DoubleLinkedList&amp;lt;Transaction&amp;gt;&lt;/div&gt;&lt;div&gt;+ getWallets(): SimpleList&amp;lt;Wallet&amp;gt;&lt;/div&gt;&lt;div&gt;+ getUserCRUD(): UserCRUD&lt;/div&gt;&lt;div&gt;+ getAccountCRUD(): AccountCRUD&lt;/div&gt;&lt;div&gt;+ getTransactionCRUD(): TransactionCRUD&lt;/div&gt;&lt;div&gt;+ getWalletCRUD(): WalletCRUD&lt;/div&gt;&lt;div&gt;+ getTManager(): TransactionManager&lt;/div&gt;&lt;div&gt;+ getSManager(): ScheduledTransactionManager&lt;/div&gt;&lt;div&gt;&lt;br&gt;&lt;/div&gt;" style="text;strokeColor=none;fillColor=none;align=left;verticalAlign=top;spacingLeft=4;spacingRight=4;overflow=hidden;rotatable=0;points=[[0,0.5],[1,0.5]];portConstraint=eastwest;whiteSpace=wrap;html=1;" vertex="1" parent="kNOtVhge8NMvpJqVgjMI-1">
          <mxGeometry y="118" width="250" height="202" as="geometry" />
        </mxCell>
        <mxCell id="pKIrelrIvHtqwNI4XItX-1" style="edgeStyle=orthogonalEdgeStyle;rounded=0;orthogonalLoop=1;jettySize=auto;html=1;entryX=0.5;entryY=0;entryDx=0;entryDy=0;" edge="1" parent="1" source="kNOtVhge8NMvpJqVgjMI-5" target="kNOtVhge8NMvpJqVgjMI-1">
          <mxGeometry relative="1" as="geometry" />
        </mxCell>
        <mxCell id="pKIrelrIvHtqwNI4XItX-2" value="1" style="edgeLabel;html=1;align=center;verticalAlign=middle;resizable=0;points=[];" connectable="0" vertex="1" parent="pKIrelrIvHtqwNI4XItX-1">
          <mxGeometry x="-0.7048" relative="1" as="geometry">
            <mxPoint x="15" as="offset" />
          </mxGeometry>
        </mxCell>
        <mxCell id="pKIrelrIvHtqwNI4XItX-3" value="1" style="edgeLabel;html=1;align=center;verticalAlign=middle;resizable=0;points=[];" connectable="0" vertex="1" parent="pKIrelrIvHtqwNI4XItX-1">
          <mxGeometry x="0.4698" y="-4" relative="1" as="geometry">
            <mxPoint x="19" as="offset" />
          </mxGeometry>
        </mxCell>
        <mxCell id="kNOtVhge8NMvpJqVgjMI-5" value="NexpayWebApplication" style="swimlane;fontStyle=1;align=center;verticalAlign=top;childLayout=stackLayout;horizontal=1;startSize=26;horizontalStack=0;resizeParent=1;resizeParentMax=0;resizeLast=0;collapsible=1;marginBottom=0;whiteSpace=wrap;html=1;" vertex="1" parent="1">
          <mxGeometry x="2815" y="40" width="160" height="60" as="geometry" />
        </mxCell>
        <mxCell id="kNOtVhge8NMvpJqVgjMI-7" value="" style="line;strokeWidth=1;fillColor=none;align=left;verticalAlign=middle;spacingTop=-1;spacingLeft=3;spacingRight=3;rotatable=0;labelPosition=right;points=[];portConstraint=eastwest;strokeColor=inherit;" vertex="1" parent="kNOtVhge8NMvpJqVgjMI-5">
          <mxGeometry y="26" width="160" height="8" as="geometry" />
        </mxCell>
        <mxCell id="kNOtVhge8NMvpJqVgjMI-8" value="+ main(args: String[]): void" style="text;strokeColor=none;fillColor=none;align=left;verticalAlign=top;spacingLeft=4;spacingRight=4;overflow=hidden;rotatable=0;points=[[0,0.5],[1,0.5]];portConstraint=eastwest;whiteSpace=wrap;html=1;" vertex="1" parent="kNOtVhge8NMvpJqVgjMI-5">
          <mxGeometry y="34" width="160" height="26" as="geometry" />
        </mxCell>
        <mxCell id="kNOtVhge8NMvpJqVgjMI-9" value="WalletCRUD" style="swimlane;fontStyle=1;align=center;verticalAlign=top;childLayout=stackLayout;horizontal=1;startSize=26;horizontalStack=0;resizeParent=1;resizeParentMax=0;resizeLast=0;collapsible=1;marginBottom=0;whiteSpace=wrap;html=1;" vertex="1" parent="1">
          <mxGeometry x="3160" y="520" width="210" height="188" as="geometry" />
        </mxCell>
        <mxCell id="kNOtVhge8NMvpJqVgjMI-10" value="&lt;div&gt;- nexpay: Nexpay&lt;/div&gt;&lt;div&gt;- persistence: WalletPersistence&lt;/div&gt;" style="text;strokeColor=none;fillColor=none;align=left;verticalAlign=top;spacingLeft=4;spacingRight=4;overflow=hidden;rotatable=0;points=[[0,0.5],[1,0.5]];portConstraint=eastwest;whiteSpace=wrap;html=1;" vertex="1" parent="kNOtVhge8NMvpJqVgjMI-9">
          <mxGeometry y="26" width="210" height="34" as="geometry" />
        </mxCell>
        <mxCell id="kNOtVhge8NMvpJqVgjMI-11" value="" style="line;strokeWidth=1;fillColor=none;align=left;verticalAlign=middle;spacingTop=-1;spacingLeft=3;spacingRight=3;rotatable=0;labelPosition=right;points=[];portConstraint=eastwest;strokeColor=inherit;" vertex="1" parent="kNOtVhge8NMvpJqVgjMI-9">
          <mxGeometry y="60" width="210" height="8" as="geometry" />
        </mxCell>
        <mxCell id="kNOtVhge8NMvpJqVgjMI-12" value="&lt;div&gt;+ WalletCRUD(nexpay: Nexpay)&lt;/div&gt;&lt;div&gt;+ findWalletById(userId: String, walletId: String): Optional&amp;lt;Wallet&amp;gt;&lt;/div&gt;&lt;div&gt;+ create(wallet: Wallet): Wallet&lt;/div&gt;&lt;div&gt;+ read(walletId: String): Wallet&lt;/div&gt;&lt;div&gt;+ update(wallet: Wallet): void&lt;/div&gt;&lt;div&gt;+ delete(walletId: String): void&lt;/div&gt;" style="text;strokeColor=none;fillColor=none;align=left;verticalAlign=top;spacingLeft=4;spacingRight=4;overflow=hidden;rotatable=0;points=[[0,0.5],[1,0.5]];portConstraint=eastwest;whiteSpace=wrap;html=1;" vertex="1" parent="kNOtVhge8NMvpJqVgjMI-9">
          <mxGeometry y="68" width="210" height="120" as="geometry" />
        </mxCell>
        <mxCell id="kNOtVhge8NMvpJqVgjMI-13" value="UserCRUD" style="swimlane;fontStyle=1;align=center;verticalAlign=top;childLayout=stackLayout;horizontal=1;startSize=26;horizontalStack=0;resizeParent=1;resizeParentMax=0;resizeLast=0;collapsible=1;marginBottom=0;whiteSpace=wrap;html=1;" vertex="1" parent="1">
          <mxGeometry x="3400" y="520" width="200" height="328" as="geometry" />
        </mxCell>
        <mxCell id="kNOtVhge8NMvpJqVgjMI-14" value="&lt;div&gt;- nexpay: Nexpay&lt;/div&gt;&lt;div&gt;- persistence: UserPersistence&lt;/div&gt;" style="text;strokeColor=none;fillColor=none;align=left;verticalAlign=top;spacingLeft=4;spacingRight=4;overflow=hidden;rotatable=0;points=[[0,0.5],[1,0.5]];portConstraint=eastwest;whiteSpace=wrap;html=1;" vertex="1" parent="kNOtVhge8NMvpJqVgjMI-13">
          <mxGeometry y="26" width="200" height="44" as="geometry" />
        </mxCell>
        <mxCell id="kNOtVhge8NMvpJqVgjMI-15" value="" style="line;strokeWidth=1;fillColor=none;align=left;verticalAlign=middle;spacingTop=-1;spacingLeft=3;spacingRight=3;rotatable=0;labelPosition=right;points=[];portConstraint=eastwest;strokeColor=inherit;" vertex="1" parent="kNOtVhge8NMvpJqVgjMI-13">
          <mxGeometry y="70" width="200" height="8" as="geometry" />
        </mxCell>
        <mxCell id="kNOtVhge8NMvpJqVgjMI-16" value="&lt;div&gt;+ UserCRUD(nexpay: Nexpay)&lt;/div&gt;&lt;div&gt;+ findUserById(id: String): Optional&amp;lt;User&amp;gt;&lt;/div&gt;&lt;div&gt;+ isEmailValid(email: String): boolean&lt;/div&gt;&lt;div&gt;+ isPasswordValid(password: String): boolean&lt;/div&gt;&lt;div&gt;+ create(user: User): User&lt;/div&gt;&lt;div&gt;+ read(id: String): User&lt;/div&gt;&lt;div&gt;+ safeRead(id: String): User&lt;/div&gt;&lt;div&gt;+ update(user: User): void&lt;/div&gt;&lt;div&gt;+ delete(id: String): void&lt;/div&gt;&lt;div&gt;+ getNexpay(): Nexpay&lt;/div&gt;&lt;div&gt;+ setNexpay(nexpay: Nexpay): void&lt;/div&gt;&lt;div&gt;+ getPersistence(): UserPersistence&lt;/div&gt;" style="text;strokeColor=none;fillColor=none;align=left;verticalAlign=top;spacingLeft=4;spacingRight=4;overflow=hidden;rotatable=0;points=[[0,0.5],[1,0.5]];portConstraint=eastwest;whiteSpace=wrap;html=1;" vertex="1" parent="kNOtVhge8NMvpJqVgjMI-13">
          <mxGeometry y="78" width="200" height="250" as="geometry" />
        </mxCell>
        <mxCell id="kNOtVhge8NMvpJqVgjMI-17" value="TransaccionCRUD" style="swimlane;fontStyle=1;align=center;verticalAlign=top;childLayout=stackLayout;horizontal=1;startSize=26;horizontalStack=0;resizeParent=1;resizeParentMax=0;resizeLast=0;collapsible=1;marginBottom=0;whiteSpace=wrap;html=1;" vertex="1" parent="1">
          <mxGeometry x="3630" y="520" width="220" height="230" as="geometry" />
        </mxCell>
        <mxCell id="kNOtVhge8NMvpJqVgjMI-18" value="&lt;div&gt;- nexpay: Nexpay&lt;/div&gt;&lt;div&gt;- persistence: TransactionPersistence&lt;/div&gt;" style="text;strokeColor=none;fillColor=none;align=left;verticalAlign=top;spacingLeft=4;spacingRight=4;overflow=hidden;rotatable=0;points=[[0,0.5],[1,0.5]];portConstraint=eastwest;whiteSpace=wrap;html=1;" vertex="1" parent="kNOtVhge8NMvpJqVgjMI-17">
          <mxGeometry y="26" width="220" height="44" as="geometry" />
        </mxCell>
        <mxCell id="kNOtVhge8NMvpJqVgjMI-19" value="" style="line;strokeWidth=1;fillColor=none;align=left;verticalAlign=middle;spacingTop=-1;spacingLeft=3;spacingRight=3;rotatable=0;labelPosition=right;points=[];portConstraint=eastwest;strokeColor=inherit;" vertex="1" parent="kNOtVhge8NMvpJqVgjMI-17">
          <mxGeometry y="70" width="220" height="8" as="geometry" />
        </mxCell>
        <mxCell id="kNOtVhge8NMvpJqVgjMI-20" value="&lt;div&gt;+ TransactionCRUD(nexpay: Nexpay)&lt;/div&gt;&lt;div&gt;+ findTransactionById(id: String): Optional&amp;lt;Transaction&amp;gt;&lt;/div&gt;&lt;div&gt;+ create(transaction: Transaction): Transaction&lt;/div&gt;&lt;div&gt;+ read(id: String): Transaction&lt;/div&gt;&lt;div&gt;+ update(transaction: Transaction): void&lt;/div&gt;&lt;div&gt;+ delete(id: String): void&lt;/div&gt;" style="text;strokeColor=none;fillColor=none;align=left;verticalAlign=top;spacingLeft=4;spacingRight=4;overflow=hidden;rotatable=0;points=[[0,0.5],[1,0.5]];portConstraint=eastwest;whiteSpace=wrap;html=1;" vertex="1" parent="kNOtVhge8NMvpJqVgjMI-17">
          <mxGeometry y="78" width="220" height="152" as="geometry" />
        </mxCell>
        <mxCell id="kNOtVhge8NMvpJqVgjMI-25" value="Â«interfaceÂ»&lt;br&gt;&lt;b&gt;CRUD&lt;/b&gt;" style="html=1;whiteSpace=wrap;" vertex="1" parent="1">
          <mxGeometry x="4220" y="450" width="110" height="50" as="geometry" />
        </mxCell>
        <mxCell id="pKIrelrIvHtqwNI4XItX-7" style="edgeStyle=orthogonalEdgeStyle;rounded=0;orthogonalLoop=1;jettySize=auto;html=1;exitX=0.5;exitY=0;exitDx=0;exitDy=0;entryX=1.011;entryY=0.015;entryDx=0;entryDy=0;entryPerimeter=0;startArrow=classic;startFill=1;endArrow=none;" edge="1" parent="1" source="kNOtVhge8NMvpJqVgjMI-17" target="kNOtVhge8NMvpJqVgjMI-2">
          <mxGeometry relative="1" as="geometry">
            <Array as="points">
              <mxPoint x="3740" y="430" />
              <mxPoint x="3070" y="430" />
              <mxPoint x="3070" y="567" />
            </Array>
          </mxGeometry>
        </mxCell>
        <mxCell id="pKIrelrIvHtqwNI4XItX-8" style="edgeStyle=orthogonalEdgeStyle;rounded=0;orthogonalLoop=1;jettySize=auto;html=1;exitX=0.5;exitY=0;exitDx=0;exitDy=0;entryX=1.002;entryY=0.315;entryDx=0;entryDy=0;entryPerimeter=0;startArrow=classic;startFill=0;endArrow=none;" edge="1" parent="1" source="kNOtVhge8NMvpJqVgjMI-13" target="kNOtVhge8NMvpJqVgjMI-2">
          <mxGeometry relative="1" as="geometry">
            <Array as="points">
              <mxPoint x="3500" y="460" />
              <mxPoint x="3100" y="460" />
              <mxPoint x="3100" y="592" />
            </Array>
          </mxGeometry>
        </mxCell>
        <mxCell id="pKIrelrIvHtqwNI4XItX-9" style="edgeStyle=orthogonalEdgeStyle;rounded=0;orthogonalLoop=1;jettySize=auto;html=1;exitX=0.5;exitY=0;exitDx=0;exitDy=0;entryX=1.016;entryY=0.75;entryDx=0;entryDy=0;entryPerimeter=0;endArrow=none;startFill=1;startArrow=classic;" edge="1" parent="1" source="kNOtVhge8NMvpJqVgjMI-9" target="kNOtVhge8NMvpJqVgjMI-2">
          <mxGeometry relative="1" as="geometry">
            <Array as="points">
              <mxPoint x="3265" y="500" />
              <mxPoint x="3130" y="500" />
              <mxPoint x="3130" y="629" />
            </Array>
          </mxGeometry>
        </mxCell>
        <mxCell id="pKIrelrIvHtqwNI4XItX-13" style="edgeStyle=orthogonalEdgeStyle;rounded=0;orthogonalLoop=1;jettySize=auto;html=1;exitX=0.25;exitY=1;exitDx=0;exitDy=0;entryX=0.425;entryY=1.016;entryDx=0;entryDy=0;entryPerimeter=0;dashed=1;endArrow=none;startFill=0;startArrow=block;" edge="1" parent="1" source="kNOtVhge8NMvpJqVgjMI-25" target="kNOtVhge8NMvpJqVgjMI-20">
          <mxGeometry relative="1" as="geometry">
            <Array as="points">
              <mxPoint x="4248" y="800" />
              <mxPoint x="3723" y="800" />
            </Array>
          </mxGeometry>
        </mxCell>
        <mxCell id="pKIrelrIvHtqwNI4XItX-14" value="AccountCRUD" style="swimlane;fontStyle=1;align=center;verticalAlign=top;childLayout=stackLayout;horizontal=1;startSize=26;horizontalStack=0;resizeParent=1;resizeParentMax=0;resizeLast=0;collapsible=1;marginBottom=0;whiteSpace=wrap;html=1;" vertex="1" parent="1">
          <mxGeometry x="3890" y="520" width="250" height="230" as="geometry" />
        </mxCell>
        <mxCell id="pKIrelrIvHtqwNI4XItX-15" value="&lt;div&gt;- nexp: Nexpay&lt;/div&gt;&lt;div&gt;- accountPersistence: AccountPersistence&lt;/div&gt;" style="text;strokeColor=none;fillColor=none;align=left;verticalAlign=top;spacingLeft=4;spacingRight=4;overflow=hidden;rotatable=0;points=[[0,0.5],[1,0.5]];portConstraint=eastwest;whiteSpace=wrap;html=1;" vertex="1" parent="pKIrelrIvHtqwNI4XItX-14">
          <mxGeometry y="26" width="250" height="44" as="geometry" />
        </mxCell>
        <mxCell id="pKIrelrIvHtqwNI4XItX-16" value="" style="line;strokeWidth=1;fillColor=none;align=left;verticalAlign=middle;spacingTop=-1;spacingLeft=3;spacingRight=3;rotatable=0;labelPosition=right;points=[];portConstraint=eastwest;strokeColor=inherit;" vertex="1" parent="pKIrelrIvHtqwNI4XItX-14">
          <mxGeometry y="70" width="250" height="8" as="geometry" />
        </mxCell>
        <mxCell id="pKIrelrIvHtqwNI4XItX-17" value="&lt;div&gt;+ AccountCRUD(nexp: Nexpay)&lt;/div&gt;&lt;div&gt;+ findAccountById(id: String): Optional&amp;lt;Account&amp;gt;&lt;/div&gt;&lt;div&gt;+ searchString(phrase: String, search: String): boolean&lt;/div&gt;&lt;div&gt;+ create(account: Account): Account&lt;/div&gt;&lt;div&gt;+ read(id: String): Account&lt;/div&gt;&lt;div&gt;+ safeRead(id: String): Account&lt;/div&gt;&lt;div&gt;+ update(account: Account): void&lt;/div&gt;&lt;div&gt;+ delete(id: String): void&lt;/div&gt;" style="text;strokeColor=none;fillColor=none;align=left;verticalAlign=top;spacingLeft=4;spacingRight=4;overflow=hidden;rotatable=0;points=[[0,0.5],[1,0.5]];portConstraint=eastwest;whiteSpace=wrap;html=1;" vertex="1" parent="pKIrelrIvHtqwNI4XItX-14">
          <mxGeometry y="78" width="250" height="152" as="geometry" />
        </mxCell>
        <mxCell id="pKIrelrIvHtqwNI4XItX-18" style="edgeStyle=orthogonalEdgeStyle;rounded=0;orthogonalLoop=1;jettySize=auto;html=1;exitX=0;exitY=0.5;exitDx=0;exitDy=0;entryX=0.513;entryY=1.039;entryDx=0;entryDy=0;entryPerimeter=0;dashed=1;startArrow=block;startFill=0;endArrow=none;" edge="1" parent="1" source="kNOtVhge8NMvpJqVgjMI-25" target="pKIrelrIvHtqwNI4XItX-17">
          <mxGeometry relative="1" as="geometry">
            <Array as="points">
              <mxPoint x="4190" y="475" />
              <mxPoint x="4190" y="780" />
              <mxPoint x="4018" y="780" />
            </Array>
          </mxGeometry>
        </mxCell>
        <mxCell id="pKIrelrIvHtqwNI4XItX-19" value="AdminDashboardController" style="swimlane;fontStyle=1;align=center;verticalAlign=top;childLayout=stackLayout;horizontal=1;startSize=26;horizontalStack=0;resizeParent=1;resizeParentMax=0;resizeLast=0;collapsible=1;marginBottom=0;whiteSpace=wrap;html=1;" vertex="1" parent="1">
          <mxGeometry x="2290" y="880" width="330" height="430" as="geometry" />
        </mxCell>
        <mxCell id="pKIrelrIvHtqwNI4XItX-20" value="- nexpay: Nexpay" style="text;strokeColor=none;fillColor=none;align=left;verticalAlign=top;spacingLeft=4;spacingRight=4;overflow=hidden;rotatable=0;points=[[0,0.5],[1,0.5]];portConstraint=eastwest;whiteSpace=wrap;html=1;" vertex="1" parent="pKIrelrIvHtqwNI4XItX-19">
          <mxGeometry y="26" width="330" height="26" as="geometry" />
        </mxCell>
        <mxCell id="pKIrelrIvHtqwNI4XItX-21" value="" style="line;strokeWidth=1;fillColor=none;align=left;verticalAlign=middle;spacingTop=-1;spacingLeft=3;spacingRight=3;rotatable=0;labelPosition=right;points=[];portConstraint=eastwest;strokeColor=inherit;" vertex="1" parent="pKIrelrIvHtqwNI4XItX-19">
          <mxGeometry y="52" width="330" height="8" as="geometry" />
        </mxCell>
        <mxCell id="pKIrelrIvHtqwNI4XItX-22" value="&lt;div&gt;+ showAdminDashboard(): String&lt;/div&gt;&lt;div&gt;+ manageUsers(search: String, model: Model): String&lt;/div&gt;&lt;div&gt;+ createUser(...): String&lt;/div&gt;&lt;div&gt;+ deleteUser(id: String): String&lt;/div&gt;&lt;div&gt;+ showEditUserForm(id: String, model: Model): String&lt;/div&gt;&lt;div&gt;+ updateUser(...): String&lt;/div&gt;&lt;div&gt;+ manageAccounts(search: String, editId: String, model: Model): String&lt;/div&gt;&lt;div&gt;+ createAccount(...): String&lt;/div&gt;&lt;div&gt;+ deleteAccount(id: String): String&lt;/div&gt;&lt;div&gt;+ showEditAccountForm(id: String, model: Model): String&lt;/div&gt;&lt;div&gt;+ updateAccount(account: Account): String&lt;/div&gt;&lt;div&gt;+ manageTransactions(search: String, error: String, model: Model): String&lt;/div&gt;&lt;div&gt;+ createTransaction(...): String&lt;/div&gt;&lt;div&gt;+ undoTransaction(): String&lt;/div&gt;&lt;div&gt;&lt;div&gt;+ manageWallets(userId: String, model: Model): String&lt;/div&gt;&lt;div&gt;+ createWallet(userId: String, walletName: String, redirectAttributes): String&lt;/div&gt;&lt;div&gt;+ deleteWallet(userId: String, walletId: String, redirectAttributes): String&lt;/div&gt;&lt;div&gt;+ showEditWalletForm(userId: String, walletId: String, model: Model): String&lt;/div&gt;&lt;div&gt;+ updateWallet(userId: String, walletId: String, name: String): String&lt;/div&gt;&lt;/div&gt;" style="text;strokeColor=none;fillColor=none;align=left;verticalAlign=top;spacingLeft=4;spacingRight=4;overflow=hidden;rotatable=0;points=[[0,0.5],[1,0.5]];portConstraint=eastwest;whiteSpace=wrap;html=1;" vertex="1" parent="pKIrelrIvHtqwNI4XItX-19">
          <mxGeometry y="60" width="330" height="370" as="geometry" />
        </mxCell>
        <mxCell id="pKIrelrIvHtqwNI4XItX-27" value="UserWalletController" style="swimlane;fontStyle=1;align=center;verticalAlign=top;childLayout=stackLayout;horizontal=1;startSize=26;horizontalStack=0;resizeParent=1;resizeParentMax=0;resizeLast=0;collapsible=1;marginBottom=0;whiteSpace=wrap;html=1;" vertex="1" parent="1">
          <mxGeometry x="1300" y="880" width="220" height="200" as="geometry" />
        </mxCell>
        <mxCell id="pKIrelrIvHtqwNI4XItX-28" value="- nexpay: Nexpay" style="text;strokeColor=none;fillColor=none;align=left;verticalAlign=top;spacingLeft=4;spacingRight=4;overflow=hidden;rotatable=0;points=[[0,0.5],[1,0.5]];portConstraint=eastwest;whiteSpace=wrap;html=1;" vertex="1" parent="pKIrelrIvHtqwNI4XItX-27">
          <mxGeometry y="26" width="220" height="26" as="geometry" />
        </mxCell>
        <mxCell id="pKIrelrIvHtqwNI4XItX-29" value="" style="line;strokeWidth=1;fillColor=none;align=left;verticalAlign=middle;spacingTop=-1;spacingLeft=3;spacingRight=3;rotatable=0;labelPosition=right;points=[];portConstraint=eastwest;strokeColor=inherit;" vertex="1" parent="pKIrelrIvHtqwNI4XItX-27">
          <mxGeometry y="52" width="220" height="8" as="geometry" />
        </mxCell>
        <mxCell id="pKIrelrIvHtqwNI4XItX-30" value="&lt;div&gt;+ showUserWallets(model: Model): String&lt;/div&gt;&lt;div&gt;+ createWallet(name: String, redirect: RedirectAttributes): String&lt;/div&gt;&lt;div&gt;+ deleteWallet(walletId: String, redirect: RedirectAttributes): String&lt;/div&gt;&lt;div&gt;+ accessWallet(walletId: String): String&lt;/div&gt;" style="text;strokeColor=none;fillColor=none;align=left;verticalAlign=top;spacingLeft=4;spacingRight=4;overflow=hidden;rotatable=0;points=[[0,0.5],[1,0.5]];portConstraint=eastwest;whiteSpace=wrap;html=1;" vertex="1" parent="pKIrelrIvHtqwNI4XItX-27">
          <mxGeometry y="60" width="220" height="140" as="geometry" />
        </mxCell>
        <mxCell id="pKIrelrIvHtqwNI4XItX-31" value="UserDashboardController" style="swimlane;fontStyle=1;align=center;verticalAlign=top;childLayout=stackLayout;horizontal=1;startSize=26;horizontalStack=0;resizeParent=1;resizeParentMax=0;resizeLast=0;collapsible=1;marginBottom=0;whiteSpace=wrap;html=1;" vertex="1" parent="1">
          <mxGeometry x="1580" y="880" width="330" height="350" as="geometry" />
        </mxCell>
        <mxCell id="pKIrelrIvHtqwNI4XItX-32" value="- nexpay: Nexpay" style="text;strokeColor=none;fillColor=none;align=left;verticalAlign=top;spacingLeft=4;spacingRight=4;overflow=hidden;rotatable=0;points=[[0,0.5],[1,0.5]];portConstraint=eastwest;whiteSpace=wrap;html=1;" vertex="1" parent="pKIrelrIvHtqwNI4XItX-31">
          <mxGeometry y="26" width="330" height="26" as="geometry" />
        </mxCell>
        <mxCell id="pKIrelrIvHtqwNI4XItX-33" value="" style="line;strokeWidth=1;fillColor=none;align=left;verticalAlign=middle;spacingTop=-1;spacingLeft=3;spacingRight=3;rotatable=0;labelPosition=right;points=[];portConstraint=eastwest;strokeColor=inherit;" vertex="1" parent="pKIrelrIvHtqwNI4XItX-31">
          <mxGeometry y="52" width="330" height="8" as="geometry" />
        </mxCell>
        <mxCell id="pKIrelrIvHtqwNI4XItX-34" value="&lt;div&gt;+ showUserDashboard(model: Model): String&lt;/div&gt;&lt;div&gt;+ viewMyAccounts(editId: String, model: Model): String&lt;/div&gt;&lt;div&gt;+ createAccount(...): String&lt;/div&gt;&lt;div&gt;+ deleteAccount(id: String, redirect: RedirectAttributes): String&lt;/div&gt;&lt;div&gt;+ updateAccount(updatedAccount: Account, redirect: RedirectAttributes): String&lt;/div&gt;&lt;div&gt;+ viewUserTransactions(model: Model): String&lt;/div&gt;&lt;div&gt;+ undoLastUserTransaction(redirect: RedirectAttributes): String&lt;/div&gt;&lt;div&gt;+ showTransactionForm(model: Model): String&lt;/div&gt;&lt;div&gt;+ createTransaction(...): String&lt;/div&gt;&lt;div&gt;+ showPoints(): String&lt;/div&gt;&lt;div&gt;+ showBenefitsPage(model: Model): String&lt;/div&gt;&lt;div&gt;+ redeemBenefit(benefit: String, redirect: RedirectAttributes): String&lt;/div&gt;&lt;div&gt;+ showPointHistory(model: Model): String&lt;/div&gt;&lt;div&gt;+ showCategoryGraph(model: Model): String&lt;/div&gt;" style="text;strokeColor=none;fillColor=none;align=left;verticalAlign=top;spacingLeft=4;spacingRight=4;overflow=hidden;rotatable=0;points=[[0,0.5],[1,0.5]];portConstraint=eastwest;whiteSpace=wrap;html=1;" vertex="1" parent="pKIrelrIvHtqwNI4XItX-31">
          <mxGeometry y="60" width="330" height="290" as="geometry" />
        </mxCell>
        <mxCell id="pKIrelrIvHtqwNI4XItX-35" value="AuthController" style="swimlane;fontStyle=1;align=center;verticalAlign=top;childLayout=stackLayout;horizontal=1;startSize=26;horizontalStack=0;resizeParent=1;resizeParentMax=0;resizeLast=0;collapsible=1;marginBottom=0;whiteSpace=wrap;html=1;" vertex="1" parent="1">
          <mxGeometry x="1970" y="880" width="260" height="200" as="geometry" />
        </mxCell>
        <mxCell id="pKIrelrIvHtqwNI4XItX-36" value="- nexpay: Nexpay" style="text;strokeColor=none;fillColor=none;align=left;verticalAlign=top;spacingLeft=4;spacingRight=4;overflow=hidden;rotatable=0;points=[[0,0.5],[1,0.5]];portConstraint=eastwest;whiteSpace=wrap;html=1;" vertex="1" parent="pKIrelrIvHtqwNI4XItX-35">
          <mxGeometry y="26" width="260" height="26" as="geometry" />
        </mxCell>
        <mxCell id="pKIrelrIvHtqwNI4XItX-37" value="" style="line;strokeWidth=1;fillColor=none;align=left;verticalAlign=middle;spacingTop=-1;spacingLeft=3;spacingRight=3;rotatable=0;labelPosition=right;points=[];portConstraint=eastwest;strokeColor=inherit;" vertex="1" parent="pKIrelrIvHtqwNI4XItX-35">
          <mxGeometry y="52" width="260" height="8" as="geometry" />
        </mxCell>
        <mxCell id="pKIrelrIvHtqwNI4XItX-38" value="&lt;div&gt;+ showLoginPage(): String&lt;/div&gt;&lt;div&gt;+ login(id: String, password: String, model: Model): String&lt;/div&gt;&lt;div&gt;+ showRegisterPage(): String&lt;/div&gt;&lt;div&gt;+ register(id: String, password: String, name: String, email: String, phone: String, address: String, model: Model): String&lt;/div&gt;&lt;div&gt;+ logout(): String&lt;/div&gt;" style="text;strokeColor=none;fillColor=none;align=left;verticalAlign=top;spacingLeft=4;spacingRight=4;overflow=hidden;rotatable=0;points=[[0,0.5],[1,0.5]];portConstraint=eastwest;whiteSpace=wrap;html=1;" vertex="1" parent="pKIrelrIvHtqwNI4XItX-35">
          <mxGeometry y="60" width="260" height="140" as="geometry" />
        </mxCell>
        <mxCell id="pKIrelrIvHtqwNI4XItX-40" style="edgeStyle=orthogonalEdgeStyle;rounded=0;orthogonalLoop=1;jettySize=auto;html=1;exitX=0.5;exitY=0;exitDx=0;exitDy=0;entryX=-0.004;entryY=0.922;entryDx=0;entryDy=0;entryPerimeter=0;dashed=1;" edge="1" parent="1" source="pKIrelrIvHtqwNI4XItX-19" target="kNOtVhge8NMvpJqVgjMI-4">
          <mxGeometry relative="1" as="geometry" />
        </mxCell>
        <mxCell id="pKIrelrIvHtqwNI4XItX-41" style="edgeStyle=orthogonalEdgeStyle;rounded=0;orthogonalLoop=1;jettySize=auto;html=1;exitX=0.5;exitY=0;exitDx=0;exitDy=0;entryX=0.001;entryY=0.814;entryDx=0;entryDy=0;entryPerimeter=0;dashed=1;" edge="1" parent="1" source="pKIrelrIvHtqwNI4XItX-35" target="kNOtVhge8NMvpJqVgjMI-4">
          <mxGeometry relative="1" as="geometry" />
        </mxCell>
        <mxCell id="pKIrelrIvHtqwNI4XItX-42" style="edgeStyle=orthogonalEdgeStyle;rounded=0;orthogonalLoop=1;jettySize=auto;html=1;exitX=0.5;exitY=0;exitDx=0;exitDy=0;entryX=-0.004;entryY=0.727;entryDx=0;entryDy=0;entryPerimeter=0;dashed=1;" edge="1" parent="1" source="pKIrelrIvHtqwNI4XItX-31" target="kNOtVhge8NMvpJqVgjMI-4">
          <mxGeometry relative="1" as="geometry" />
        </mxCell>
        <mxCell id="pKIrelrIvHtqwNI4XItX-43" style="edgeStyle=orthogonalEdgeStyle;rounded=0;orthogonalLoop=1;jettySize=auto;html=1;exitX=0.5;exitY=0;exitDx=0;exitDy=0;entryX=0.005;entryY=0.639;entryDx=0;entryDy=0;entryPerimeter=0;dashed=1;" edge="1" parent="1" source="pKIrelrIvHtqwNI4XItX-27" target="kNOtVhge8NMvpJqVgjMI-4">
          <mxGeometry relative="1" as="geometry" />
        </mxCell>
        <mxCell id="pKIrelrIvHtqwNI4XItX-48" value="&amp;lt;Abstract&amp;gt;&lt;br&gt;Person&lt;br&gt;&lt;div&gt;&lt;br&gt;&lt;/div&gt;" style="swimlane;fontStyle=1;align=center;verticalAlign=top;childLayout=stackLayout;horizontal=1;startSize=40;horizontalStack=0;resizeParent=1;resizeParentMax=0;resizeLast=0;collapsible=1;marginBottom=0;whiteSpace=wrap;html=1;" vertex="1" parent="1">
          <mxGeometry x="2770" y="950" width="250" height="330" as="geometry" />
        </mxCell>
        <mxCell id="pKIrelrIvHtqwNI4XItX-49" value="&lt;div&gt;- id: String&lt;/div&gt;&lt;div&gt;- name: String&lt;/div&gt;&lt;div&gt;- email: String&lt;/div&gt;&lt;div&gt;- phone: String&lt;/div&gt;&lt;div&gt;- address: String&lt;/div&gt;&lt;div&gt;- password: String&lt;/div&gt;" style="text;strokeColor=none;fillColor=none;align=left;verticalAlign=top;spacingLeft=4;spacingRight=4;overflow=hidden;rotatable=0;points=[[0,0.5],[1,0.5]];portConstraint=eastwest;whiteSpace=wrap;html=1;" vertex="1" parent="pKIrelrIvHtqwNI4XItX-48">
          <mxGeometry y="40" width="250" height="100" as="geometry" />
        </mxCell>
        <mxCell id="pKIrelrIvHtqwNI4XItX-50" value="" style="line;strokeWidth=1;fillColor=none;align=left;verticalAlign=middle;spacingTop=-1;spacingLeft=3;spacingRight=3;rotatable=0;labelPosition=right;points=[];portConstraint=eastwest;strokeColor=inherit;" vertex="1" parent="pKIrelrIvHtqwNI4XItX-48">
          <mxGeometry y="140" width="250" height="8" as="geometry" />
        </mxCell>
        <mxCell id="pKIrelrIvHtqwNI4XItX-51" value="&lt;div&gt;+ getId(): String&lt;/div&gt;&lt;div&gt;+ setId(id: String): void&lt;/div&gt;&lt;div&gt;+ getName(): String&lt;/div&gt;&lt;div&gt;+ setName(name: String): void&lt;/div&gt;&lt;div&gt;+ getEmail(): String&lt;/div&gt;&lt;div&gt;+ setEmail(email: String): void&lt;/div&gt;&lt;div&gt;+ getPhone(): String&lt;/div&gt;&lt;div&gt;+ setPhone(phone: String): void&lt;/div&gt;&lt;div&gt;+ getAddress(): String&lt;/div&gt;&lt;div&gt;+ setAddress(address: String): void&lt;/div&gt;&lt;div&gt;+ getPassword(): String&lt;/div&gt;&lt;div&gt;+ setPassword(password: String): void&lt;/div&gt;" style="text;strokeColor=none;fillColor=none;align=left;verticalAlign=top;spacingLeft=4;spacingRight=4;overflow=hidden;rotatable=0;points=[[0,0.5],[1,0.5]];portConstraint=eastwest;whiteSpace=wrap;html=1;" vertex="1" parent="pKIrelrIvHtqwNI4XItX-48">
          <mxGeometry y="148" width="250" height="182" as="geometry" />
        </mxCell>
        <mxCell id="pKIrelrIvHtqwNI4XItX-52" value="Administrator" style="swimlane;fontStyle=1;align=center;verticalAlign=top;childLayout=stackLayout;horizontal=1;startSize=26;horizontalStack=0;resizeParent=1;resizeParentMax=0;resizeLast=0;collapsible=1;marginBottom=0;whiteSpace=wrap;html=1;" vertex="1" parent="1">
          <mxGeometry x="2975" y="1390" width="260" height="120" as="geometry" />
        </mxCell>
        <mxCell id="pKIrelrIvHtqwNI4XItX-53" value="- password: String" style="text;strokeColor=none;fillColor=none;align=left;verticalAlign=top;spacingLeft=4;spacingRight=4;overflow=hidden;rotatable=0;points=[[0,0.5],[1,0.5]];portConstraint=eastwest;whiteSpace=wrap;html=1;" vertex="1" parent="pKIrelrIvHtqwNI4XItX-52">
          <mxGeometry y="26" width="260" height="26" as="geometry" />
        </mxCell>
        <mxCell id="pKIrelrIvHtqwNI4XItX-54" value="" style="line;strokeWidth=1;fillColor=none;align=left;verticalAlign=middle;spacingTop=-1;spacingLeft=3;spacingRight=3;rotatable=0;labelPosition=right;points=[];portConstraint=eastwest;strokeColor=inherit;" vertex="1" parent="pKIrelrIvHtqwNI4XItX-52">
          <mxGeometry y="52" width="260" height="8" as="geometry" />
        </mxCell>
        <mxCell id="pKIrelrIvHtqwNI4XItX-55" value="&lt;div&gt;+ getInstance(): Administrator&lt;/div&gt;&lt;div&gt;+ getPassword(): String&lt;/div&gt;&lt;div&gt;+ setPassword(password: String): void&lt;/div&gt;" style="text;strokeColor=none;fillColor=none;align=left;verticalAlign=top;spacingLeft=4;spacingRight=4;overflow=hidden;rotatable=0;points=[[0,0.5],[1,0.5]];portConstraint=eastwest;whiteSpace=wrap;html=1;" vertex="1" parent="pKIrelrIvHtqwNI4XItX-52">
          <mxGeometry y="60" width="260" height="60" as="geometry" />
        </mxCell>
        <mxCell id="pKIrelrIvHtqwNI4XItX-56" value="User" style="swimlane;fontStyle=1;align=center;verticalAlign=top;childLayout=stackLayout;horizontal=1;startSize=26;horizontalStack=0;resizeParent=1;resizeParentMax=0;resizeLast=0;collapsible=1;marginBottom=0;whiteSpace=wrap;html=1;" vertex="1" parent="1">
          <mxGeometry x="2605" y="1390" width="320" height="298" as="geometry" />
        </mxCell>
        <mxCell id="pKIrelrIvHtqwNI4XItX-57" value="&lt;div&gt;- totalBalance: double&lt;/div&gt;&lt;div&gt;- walletGraph: WalletGraph&lt;/div&gt;&lt;div&gt;- nexpay: Nexpay&lt;/div&gt;&lt;div&gt;- points: int&lt;/div&gt;&lt;div&gt;- benefits: UserBenefit&lt;/div&gt;" style="text;strokeColor=none;fillColor=none;align=left;verticalAlign=top;spacingLeft=4;spacingRight=4;overflow=hidden;rotatable=0;points=[[0,0.5],[1,0.5]];portConstraint=eastwest;whiteSpace=wrap;html=1;" vertex="1" parent="pKIrelrIvHtqwNI4XItX-56">
          <mxGeometry y="26" width="320" height="84" as="geometry" />
        </mxCell>
        <mxCell id="pKIrelrIvHtqwNI4XItX-58" value="" style="line;strokeWidth=1;fillColor=none;align=left;verticalAlign=middle;spacingTop=-1;spacingLeft=3;spacingRight=3;rotatable=0;labelPosition=right;points=[];portConstraint=eastwest;strokeColor=inherit;" vertex="1" parent="pKIrelrIvHtqwNI4XItX-56">
          <mxGeometry y="110" width="320" height="8" as="geometry" />
        </mxCell>
        <mxCell id="pKIrelrIvHtqwNI4XItX-59" value="&lt;div&gt;+ getWalletGraph(): WalletGraph&lt;/div&gt;&lt;div&gt;+ getTotalBalance(): double&lt;/div&gt;&lt;div&gt;+ setTotalBalance(totalBalance: double): void&lt;/div&gt;&lt;div&gt;+ updateTotalBalance(): void&lt;/div&gt;&lt;div&gt;+ getNexpay(): Nexpay&lt;/div&gt;&lt;div&gt;+ setNexpay(nexpay: Nexpay): void&lt;/div&gt;&lt;div&gt;+ getPoints(): int&lt;/div&gt;&lt;div&gt;+ setPoints(points: int): void&lt;/div&gt;&lt;div&gt;+ getBenefits(): UserBenefit&lt;/div&gt;&lt;div&gt;+ setBenefits(benefits: UserBenefit): void&lt;/div&gt;" style="text;strokeColor=none;fillColor=none;align=left;verticalAlign=top;spacingLeft=4;spacingRight=4;overflow=hidden;rotatable=0;points=[[0,0.5],[1,0.5]];portConstraint=eastwest;whiteSpace=wrap;html=1;" vertex="1" parent="pKIrelrIvHtqwNI4XItX-56">
          <mxGeometry y="118" width="320" height="180" as="geometry" />
        </mxCell>
        <mxCell id="pKIrelrIvHtqwNI4XItX-60" style="edgeStyle=orthogonalEdgeStyle;rounded=0;orthogonalLoop=1;jettySize=auto;html=1;exitX=0.5;exitY=0;exitDx=0;exitDy=0;entryX=0.351;entryY=1.024;entryDx=0;entryDy=0;entryPerimeter=0;endArrow=blockThin;endFill=0;" edge="1" parent="1" source="pKIrelrIvHtqwNI4XItX-56" target="pKIrelrIvHtqwNI4XItX-51">
          <mxGeometry relative="1" as="geometry">
            <Array as="points">
              <mxPoint x="2765" y="1335" />
              <mxPoint x="2858" y="1335" />
            </Array>
          </mxGeometry>
        </mxCell>
        <mxCell id="wdRhr8LuLfwhICCDwopB-38" value="*" style="edgeLabel;html=1;align=center;verticalAlign=middle;resizable=0;points=[];fontSize=13;" connectable="0" vertex="1" parent="pKIrelrIvHtqwNI4XItX-60">
          <mxGeometry x="-0.846" y="1" relative="1" as="geometry">
            <mxPoint x="6" y="6" as="offset" />
          </mxGeometry>
        </mxCell>
        <mxCell id="pKIrelrIvHtqwNI4XItX-63" style="edgeStyle=orthogonalEdgeStyle;rounded=0;orthogonalLoop=1;jettySize=auto;html=1;exitX=0.5;exitY=0;exitDx=0;exitDy=0;endArrow=blockThin;endFill=0;" edge="1" parent="1" source="pKIrelrIvHtqwNI4XItX-52">
          <mxGeometry relative="1" as="geometry">
            <mxPoint x="2915" y="1290" as="targetPoint" />
            <Array as="points">
              <mxPoint x="3105" y="1320" />
              <mxPoint x="2915" y="1320" />
            </Array>
          </mxGeometry>
        </mxCell>
        <mxCell id="pKIrelrIvHtqwNI4XItX-65" value="Account" style="swimlane;fontStyle=1;align=center;verticalAlign=top;childLayout=stackLayout;horizontal=1;startSize=26;horizontalStack=0;resizeParent=1;resizeParentMax=0;resizeLast=0;collapsible=1;marginBottom=0;whiteSpace=wrap;html=1;" vertex="1" parent="1">
          <mxGeometry x="2790" y="1800" width="300" height="398" as="geometry" />
        </mxCell>
        <mxCell id="pKIrelrIvHtqwNI4XItX-66" value="&lt;div&gt;&lt;span style=&quot;background-color: transparent; color: light-dark(rgb(0, 0, 0), rgb(255, 255, 255));&quot;&gt;- userId: String&lt;/span&gt;&lt;/div&gt;&lt;div&gt;- id: String&lt;/div&gt;&lt;div&gt;- bankName: String&lt;/div&gt;&lt;div&gt;- accountNumber: String&lt;/div&gt;&lt;div&gt;- accountType: AccountType&lt;/div&gt;&lt;div&gt;- balance: Double&lt;/div&gt;&lt;div&gt;- walletId: String&lt;/div&gt;&lt;div&gt;- category: String&lt;/div&gt;" style="text;strokeColor=none;fillColor=none;align=left;verticalAlign=top;spacingLeft=4;spacingRight=4;overflow=hidden;rotatable=0;points=[[0,0.5],[1,0.5]];portConstraint=eastwest;whiteSpace=wrap;html=1;" vertex="1" parent="pKIrelrIvHtqwNI4XItX-65">
          <mxGeometry y="26" width="300" height="124" as="geometry" />
        </mxCell>
        <mxCell id="pKIrelrIvHtqwNI4XItX-67" value="" style="line;strokeWidth=1;fillColor=none;align=left;verticalAlign=middle;spacingTop=-1;spacingLeft=3;spacingRight=3;rotatable=0;labelPosition=right;points=[];portConstraint=eastwest;strokeColor=inherit;" vertex="1" parent="pKIrelrIvHtqwNI4XItX-65">
          <mxGeometry y="150" width="300" height="8" as="geometry" />
        </mxCell>
        <mxCell id="pKIrelrIvHtqwNI4XItX-68" value="&lt;div&gt;+ getUserId(): String&lt;/div&gt;&lt;div&gt;+ setUserId(userId: String): void&lt;/div&gt;&lt;div&gt;+ getId(): String&lt;/div&gt;&lt;div&gt;+ setId(id: String): void&lt;/div&gt;&lt;div&gt;+ getBankName(): String&lt;/div&gt;&lt;div&gt;+ setBankName(bankName: String): void&lt;/div&gt;&lt;div&gt;+ getAccountNumber(): String&lt;/div&gt;&lt;div&gt;+ setAccountNumber(accountNumber: String): void&lt;/div&gt;&lt;div&gt;+ getAccountType(): AccountType&lt;/div&gt;&lt;div&gt;+ setAccountType(accountType: AccountType): void&lt;/div&gt;&lt;div&gt;+ getBalance(): double&lt;/div&gt;&lt;div&gt;+ setBalance(balance: double): void&lt;/div&gt;&lt;div&gt;+ getWalletId(): String&lt;/div&gt;&lt;div&gt;+ getCategory(): String&lt;/div&gt;&lt;div&gt;+ setCategory(category: String): void&lt;/div&gt;" style="text;strokeColor=none;fillColor=none;align=left;verticalAlign=top;spacingLeft=4;spacingRight=4;overflow=hidden;rotatable=0;points=[[0,0.5],[1,0.5]];portConstraint=eastwest;whiteSpace=wrap;html=1;" vertex="1" parent="pKIrelrIvHtqwNI4XItX-65">
          <mxGeometry y="158" width="300" height="240" as="geometry" />
        </mxCell>
        <mxCell id="y75UKAeXViW54ZLC3x-u-5" value="EmailException" style="swimlane;fontStyle=1;align=center;verticalAlign=top;childLayout=stackLayout;horizontal=1;startSize=26;horizontalStack=0;resizeParent=1;resizeParentMax=0;resizeLast=0;collapsible=1;marginBottom=0;whiteSpace=wrap;html=1;" vertex="1" parent="1">
          <mxGeometry x="1750" y="509" width="160" height="86" as="geometry" />
        </mxCell>
        <mxCell id="y75UKAeXViW54ZLC3x-u-6" value="&lt;div&gt;&lt;br&gt;&lt;/div&gt;&lt;div&gt;&lt;br&gt;&lt;/div&gt;" style="text;strokeColor=none;fillColor=none;align=left;verticalAlign=top;spacingLeft=4;spacingRight=4;overflow=hidden;rotatable=0;points=[[0,0.5],[1,0.5]];portConstraint=eastwest;whiteSpace=wrap;html=1;" vertex="1" parent="y75UKAeXViW54ZLC3x-u-5">
          <mxGeometry y="26" width="160" height="26" as="geometry" />
        </mxCell>
        <mxCell id="y75UKAeXViW54ZLC3x-u-7" value="" style="line;strokeWidth=1;fillColor=none;align=left;verticalAlign=middle;spacingTop=-1;spacingLeft=3;spacingRight=3;rotatable=0;labelPosition=right;points=[];portConstraint=eastwest;strokeColor=inherit;" vertex="1" parent="y75UKAeXViW54ZLC3x-u-5">
          <mxGeometry y="52" width="160" height="8" as="geometry" />
        </mxCell>
        <mxCell id="y75UKAeXViW54ZLC3x-u-8" value="&lt;div&gt;&lt;br&gt;&lt;/div&gt;&lt;div&gt;&lt;br&gt;&lt;/div&gt;" style="text;strokeColor=none;fillColor=none;align=left;verticalAlign=top;spacingLeft=4;spacingRight=4;overflow=hidden;rotatable=0;points=[[0,0.5],[1,0.5]];portConstraint=eastwest;whiteSpace=wrap;html=1;" vertex="1" parent="y75UKAeXViW54ZLC3x-u-5">
          <mxGeometry y="60" width="160" height="26" as="geometry" />
        </mxCell>
        <mxCell id="y75UKAeXViW54ZLC3x-u-9" value="InsufficientBalanceException" style="swimlane;fontStyle=1;align=center;verticalAlign=top;childLayout=stackLayout;horizontal=1;startSize=26;horizontalStack=0;resizeParent=1;resizeParentMax=0;resizeLast=0;collapsible=1;marginBottom=0;whiteSpace=wrap;html=1;" vertex="1" parent="1">
          <mxGeometry x="1970" y="509" width="185" height="86" as="geometry" />
        </mxCell>
        <mxCell id="y75UKAeXViW54ZLC3x-u-10" value="&lt;div&gt;&lt;br&gt;&lt;/div&gt;&lt;div&gt;&lt;br&gt;&lt;/div&gt;" style="text;strokeColor=none;fillColor=none;align=left;verticalAlign=top;spacingLeft=4;spacingRight=4;overflow=hidden;rotatable=0;points=[[0,0.5],[1,0.5]];portConstraint=eastwest;whiteSpace=wrap;html=1;" vertex="1" parent="y75UKAeXViW54ZLC3x-u-9">
          <mxGeometry y="26" width="185" height="26" as="geometry" />
        </mxCell>
        <mxCell id="y75UKAeXViW54ZLC3x-u-11" value="" style="line;strokeWidth=1;fillColor=none;align=left;verticalAlign=middle;spacingTop=-1;spacingLeft=3;spacingRight=3;rotatable=0;labelPosition=right;points=[];portConstraint=eastwest;strokeColor=inherit;" vertex="1" parent="y75UKAeXViW54ZLC3x-u-9">
          <mxGeometry y="52" width="185" height="8" as="geometry" />
        </mxCell>
        <mxCell id="y75UKAeXViW54ZLC3x-u-12" value="&lt;div&gt;&lt;br&gt;&lt;/div&gt;&lt;div&gt;&lt;br&gt;&lt;/div&gt;" style="text;strokeColor=none;fillColor=none;align=left;verticalAlign=top;spacingLeft=4;spacingRight=4;overflow=hidden;rotatable=0;points=[[0,0.5],[1,0.5]];portConstraint=eastwest;whiteSpace=wrap;html=1;" vertex="1" parent="y75UKAeXViW54ZLC3x-u-9">
          <mxGeometry y="60" width="185" height="26" as="geometry" />
        </mxCell>
        <mxCell id="y75UKAeXViW54ZLC3x-u-13" value="InvalidAmountException" style="swimlane;fontStyle=1;align=center;verticalAlign=top;childLayout=stackLayout;horizontal=1;startSize=26;horizontalStack=0;resizeParent=1;resizeParentMax=0;resizeLast=0;collapsible=1;marginBottom=0;whiteSpace=wrap;html=1;" vertex="1" parent="1">
          <mxGeometry x="2185" y="510" width="200" height="86" as="geometry" />
        </mxCell>
        <mxCell id="y75UKAeXViW54ZLC3x-u-14" value="&lt;div&gt;&lt;br&gt;&lt;/div&gt;&lt;div&gt;&lt;br&gt;&lt;/div&gt;" style="text;strokeColor=none;fillColor=none;align=left;verticalAlign=top;spacingLeft=4;spacingRight=4;overflow=hidden;rotatable=0;points=[[0,0.5],[1,0.5]];portConstraint=eastwest;whiteSpace=wrap;html=1;" vertex="1" parent="y75UKAeXViW54ZLC3x-u-13">
          <mxGeometry y="26" width="200" height="26" as="geometry" />
        </mxCell>
        <mxCell id="y75UKAeXViW54ZLC3x-u-15" value="" style="line;strokeWidth=1;fillColor=none;align=left;verticalAlign=middle;spacingTop=-1;spacingLeft=3;spacingRight=3;rotatable=0;labelPosition=right;points=[];portConstraint=eastwest;strokeColor=inherit;" vertex="1" parent="y75UKAeXViW54ZLC3x-u-13">
          <mxGeometry y="52" width="200" height="8" as="geometry" />
        </mxCell>
        <mxCell id="y75UKAeXViW54ZLC3x-u-16" value="&lt;div&gt;&lt;br&gt;&lt;/div&gt;&lt;div&gt;&lt;br&gt;&lt;/div&gt;" style="text;strokeColor=none;fillColor=none;align=left;verticalAlign=top;spacingLeft=4;spacingRight=4;overflow=hidden;rotatable=0;points=[[0,0.5],[1,0.5]];portConstraint=eastwest;whiteSpace=wrap;html=1;" vertex="1" parent="y75UKAeXViW54ZLC3x-u-13">
          <mxGeometry y="60" width="200" height="26" as="geometry" />
        </mxCell>
        <mxCell id="wdRhr8LuLfwhICCDwopB-1" value="PasswordException" style="swimlane;fontStyle=1;align=center;verticalAlign=top;childLayout=stackLayout;horizontal=1;startSize=26;horizontalStack=0;resizeParent=1;resizeParentMax=0;resizeLast=0;collapsible=1;marginBottom=0;whiteSpace=wrap;html=1;" vertex="1" parent="1">
          <mxGeometry x="2420" y="510" width="200" height="86" as="geometry" />
        </mxCell>
        <mxCell id="wdRhr8LuLfwhICCDwopB-2" value="&lt;div&gt;&lt;br&gt;&lt;/div&gt;&lt;div&gt;&lt;br&gt;&lt;/div&gt;" style="text;strokeColor=none;fillColor=none;align=left;verticalAlign=top;spacingLeft=4;spacingRight=4;overflow=hidden;rotatable=0;points=[[0,0.5],[1,0.5]];portConstraint=eastwest;whiteSpace=wrap;html=1;" vertex="1" parent="wdRhr8LuLfwhICCDwopB-1">
          <mxGeometry y="26" width="200" height="26" as="geometry" />
        </mxCell>
        <mxCell id="wdRhr8LuLfwhICCDwopB-3" value="" style="line;strokeWidth=1;fillColor=none;align=left;verticalAlign=middle;spacingTop=-1;spacingLeft=3;spacingRight=3;rotatable=0;labelPosition=right;points=[];portConstraint=eastwest;strokeColor=inherit;" vertex="1" parent="wdRhr8LuLfwhICCDwopB-1">
          <mxGeometry y="52" width="200" height="8" as="geometry" />
        </mxCell>
        <mxCell id="wdRhr8LuLfwhICCDwopB-4" value="&lt;div&gt;&lt;br&gt;&lt;/div&gt;&lt;div&gt;&lt;br&gt;&lt;/div&gt;" style="text;strokeColor=none;fillColor=none;align=left;verticalAlign=top;spacingLeft=4;spacingRight=4;overflow=hidden;rotatable=0;points=[[0,0.5],[1,0.5]];portConstraint=eastwest;whiteSpace=wrap;html=1;" vertex="1" parent="wdRhr8LuLfwhICCDwopB-1">
          <mxGeometry y="60" width="200" height="26" as="geometry" />
        </mxCell>
        <mxCell id="wdRhr8LuLfwhICCDwopB-8" style="edgeStyle=orthogonalEdgeStyle;rounded=0;orthogonalLoop=1;jettySize=auto;html=1;exitX=0;exitY=0.5;exitDx=0;exitDy=0;entryX=0.437;entryY=0.985;entryDx=0;entryDy=0;entryPerimeter=0;" edge="1" parent="1" source="kNOtVhge8NMvpJqVgjMI-2" target="wdRhr8LuLfwhICCDwopB-4">
          <mxGeometry relative="1" as="geometry">
            <Array as="points">
              <mxPoint x="2770" y="616" />
              <mxPoint x="2507" y="616" />
            </Array>
          </mxGeometry>
        </mxCell>
        <mxCell id="wdRhr8LuLfwhICCDwopB-10" style="edgeStyle=orthogonalEdgeStyle;rounded=0;orthogonalLoop=1;jettySize=auto;html=1;exitX=0.448;exitY=1.077;exitDx=0;exitDy=0;entryX=-0.004;entryY=0.8;entryDx=0;entryDy=0;entryPerimeter=0;exitPerimeter=0;startArrow=classic;startFill=1;endArrow=none;" edge="1" parent="1" source="y75UKAeXViW54ZLC3x-u-16" target="kNOtVhge8NMvpJqVgjMI-2">
          <mxGeometry relative="1" as="geometry">
            <Array as="points">
              <mxPoint x="2275" y="633" />
            </Array>
          </mxGeometry>
        </mxCell>
        <mxCell id="wdRhr8LuLfwhICCDwopB-11" style="edgeStyle=orthogonalEdgeStyle;rounded=0;orthogonalLoop=1;jettySize=auto;html=1;exitX=0.479;exitY=1.023;exitDx=0;exitDy=0;entryX=0.002;entryY=0.2;entryDx=0;entryDy=0;entryPerimeter=0;exitPerimeter=0;startArrow=classic;startFill=1;endArrow=none;" edge="1" parent="1" source="y75UKAeXViW54ZLC3x-u-12" target="kNOtVhge8NMvpJqVgjMI-3">
          <mxGeometry relative="1" as="geometry" />
        </mxCell>
        <mxCell id="wdRhr8LuLfwhICCDwopB-12" style="edgeStyle=orthogonalEdgeStyle;rounded=0;orthogonalLoop=1;jettySize=auto;html=1;exitX=0.509;exitY=1.115;exitDx=0;exitDy=0;entryX=-0.004;entryY=0.036;entryDx=0;entryDy=0;entryPerimeter=0;exitPerimeter=0;startArrow=classic;startFill=1;endArrow=none;" edge="1" parent="1" source="y75UKAeXViW54ZLC3x-u-8" target="kNOtVhge8NMvpJqVgjMI-4">
          <mxGeometry relative="1" as="geometry">
            <Array as="points">
              <mxPoint x="1831" y="665" />
            </Array>
          </mxGeometry>
        </mxCell>
        <mxCell id="wdRhr8LuLfwhICCDwopB-13" value="AccountPersistance" style="swimlane;fontStyle=1;align=center;verticalAlign=top;childLayout=stackLayout;horizontal=1;startSize=26;horizontalStack=0;resizeParent=1;resizeParentMax=0;resizeLast=0;collapsible=1;marginBottom=0;whiteSpace=wrap;html=1;" vertex="1" parent="1">
          <mxGeometry x="4015" y="142" width="230" height="248" as="geometry" />
        </mxCell>
        <mxCell id="wdRhr8LuLfwhICCDwopB-14" value="&lt;div&gt;&lt;div&gt;- FILE_PATH: String&lt;/div&gt;&lt;div&gt;- XML_FILE_PATH: String&lt;/div&gt;&lt;div&gt;- BINARY_FILE_PATH: String&lt;/div&gt;&lt;/div&gt;" style="text;strokeColor=none;fillColor=none;align=left;verticalAlign=top;spacingLeft=4;spacingRight=4;overflow=hidden;rotatable=0;points=[[0,0.5],[1,0.5]];portConstraint=eastwest;whiteSpace=wrap;html=1;" vertex="1" parent="wdRhr8LuLfwhICCDwopB-13">
          <mxGeometry y="26" width="230" height="54" as="geometry" />
        </mxCell>
        <mxCell id="wdRhr8LuLfwhICCDwopB-15" value="" style="line;strokeWidth=1;fillColor=none;align=left;verticalAlign=middle;spacingTop=-1;spacingLeft=3;spacingRight=3;rotatable=0;labelPosition=right;points=[];portConstraint=eastwest;strokeColor=inherit;" vertex="1" parent="wdRhr8LuLfwhICCDwopB-13">
          <mxGeometry y="80" width="230" height="8" as="geometry" />
        </mxCell>
        <mxCell id="wdRhr8LuLfwhICCDwopB-16" value="&lt;div&gt;&lt;div&gt;+ getInstance(): AccountPersistence&lt;/div&gt;&lt;div&gt;+ saveAllAccounts(accounts: SimpleList&amp;lt;Account&amp;gt;): void&lt;/div&gt;&lt;div&gt;+ loadAccounts(): SimpleList&amp;lt;Account&amp;gt;&lt;/div&gt;&lt;div&gt;+ loadAccountsFromXML(): SimpleList&amp;lt;Account&amp;gt;&lt;/div&gt;&lt;div&gt;+ saveAccountToXML(account: Account): void&lt;/div&gt;&lt;div&gt;+ saveAccountToBinary(account: Account): void&lt;/div&gt;&lt;/div&gt;" style="text;strokeColor=none;fillColor=none;align=left;verticalAlign=top;spacingLeft=4;spacingRight=4;overflow=hidden;rotatable=0;points=[[0,0.5],[1,0.5]];portConstraint=eastwest;whiteSpace=wrap;html=1;" vertex="1" parent="wdRhr8LuLfwhICCDwopB-13">
          <mxGeometry y="88" width="230" height="160" as="geometry" />
        </mxCell>
        <mxCell id="wdRhr8LuLfwhICCDwopB-17" style="edgeStyle=orthogonalEdgeStyle;rounded=0;orthogonalLoop=1;jettySize=auto;html=1;exitX=0.5;exitY=0;exitDx=0;exitDy=0;entryX=0.484;entryY=1.006;entryDx=0;entryDy=0;entryPerimeter=0;endArrow=none;startFill=0;" edge="1" parent="1" source="pKIrelrIvHtqwNI4XItX-14" target="wdRhr8LuLfwhICCDwopB-16">
          <mxGeometry relative="1" as="geometry" />
        </mxCell>
        <mxCell id="wdRhr8LuLfwhICCDwopB-18" value="WalletPersistence&amp;nbsp;&amp;nbsp;" style="swimlane;fontStyle=1;align=center;verticalAlign=top;childLayout=stackLayout;horizontal=1;startSize=26;horizontalStack=0;resizeParent=1;resizeParentMax=0;resizeLast=0;collapsible=1;marginBottom=0;whiteSpace=wrap;html=1;" vertex="1" parent="1">
          <mxGeometry x="3115" y="150" width="230" height="200" as="geometry" />
        </mxCell>
        <mxCell id="wdRhr8LuLfwhICCDwopB-19" value="- FILE_PATH: String" style="text;strokeColor=none;fillColor=none;align=left;verticalAlign=top;spacingLeft=4;spacingRight=4;overflow=hidden;rotatable=0;points=[[0,0.5],[1,0.5]];portConstraint=eastwest;whiteSpace=wrap;html=1;" vertex="1" parent="wdRhr8LuLfwhICCDwopB-18">
          <mxGeometry y="26" width="230" height="54" as="geometry" />
        </mxCell>
        <mxCell id="wdRhr8LuLfwhICCDwopB-20" value="" style="line;strokeWidth=1;fillColor=none;align=left;verticalAlign=middle;spacingTop=-1;spacingLeft=3;spacingRight=3;rotatable=0;labelPosition=right;points=[];portConstraint=eastwest;strokeColor=inherit;" vertex="1" parent="wdRhr8LuLfwhICCDwopB-18">
          <mxGeometry y="80" width="230" height="8" as="geometry" />
        </mxCell>
        <mxCell id="wdRhr8LuLfwhICCDwopB-21" value="&lt;div&gt;+ getInstance(): WalletPersistence&lt;/div&gt;&lt;div&gt;+ saveAllWallets(wallets: SimpleList&amp;lt;Wallet&amp;gt;): void&lt;/div&gt;&lt;div&gt;+ saveWallet(wallet: Wallet): void&lt;/div&gt;&lt;div&gt;+ loadWalletsForUser(user: User): void&lt;/div&gt;&lt;div&gt;+ loadAllWallets(): SimpleList&amp;lt;Wallet&amp;gt;&lt;/div&gt;" style="text;strokeColor=none;fillColor=none;align=left;verticalAlign=top;spacingLeft=4;spacingRight=4;overflow=hidden;rotatable=0;points=[[0,0.5],[1,0.5]];portConstraint=eastwest;whiteSpace=wrap;html=1;" vertex="1" parent="wdRhr8LuLfwhICCDwopB-18">
          <mxGeometry y="88" width="230" height="112" as="geometry" />
        </mxCell>
        <mxCell id="wdRhr8LuLfwhICCDwopB-22" value="UserPersistence" style="swimlane;fontStyle=1;align=center;verticalAlign=top;childLayout=stackLayout;horizontal=1;startSize=26;horizontalStack=0;resizeParent=1;resizeParentMax=0;resizeLast=0;collapsible=1;marginBottom=0;whiteSpace=wrap;html=1;" vertex="1" parent="1">
          <mxGeometry x="3370" y="150" width="230" height="230" as="geometry" />
        </mxCell>
        <mxCell id="wdRhr8LuLfwhICCDwopB-23" value="&lt;div&gt;- loadUsersBinary(): SimpleList&amp;lt;User&amp;gt;&lt;/div&gt;&lt;div&gt;- FILE_PATH: String&lt;/div&gt;&lt;div&gt;- FILE_PATH_XML: String&lt;/div&gt;&lt;div&gt;- FILE_PATH_BIN: String&lt;/div&gt;" style="text;strokeColor=none;fillColor=none;align=left;verticalAlign=top;spacingLeft=4;spacingRight=4;overflow=hidden;rotatable=0;points=[[0,0.5],[1,0.5]];portConstraint=eastwest;whiteSpace=wrap;html=1;" vertex="1" parent="wdRhr8LuLfwhICCDwopB-22">
          <mxGeometry y="26" width="230" height="74" as="geometry" />
        </mxCell>
        <mxCell id="wdRhr8LuLfwhICCDwopB-24" value="" style="line;strokeWidth=1;fillColor=none;align=left;verticalAlign=middle;spacingTop=-1;spacingLeft=3;spacingRight=3;rotatable=0;labelPosition=right;points=[];portConstraint=eastwest;strokeColor=inherit;" vertex="1" parent="wdRhr8LuLfwhICCDwopB-22">
          <mxGeometry y="100" width="230" height="8" as="geometry" />
        </mxCell>
        <mxCell id="wdRhr8LuLfwhICCDwopB-25" value="&lt;div&gt;+ getInstance(): UserPersistence&lt;/div&gt;&lt;div&gt;+ saveAllUsers(users: SimpleList&amp;lt;User&amp;gt;): void&lt;/div&gt;&lt;div&gt;+ loadUsers(): SimpleList&amp;lt;User&amp;gt;&lt;/div&gt;&lt;div&gt;+ loadUsersXML(): SimpleList&amp;lt;User&amp;gt;&lt;/div&gt;&lt;div&gt;+ saveUserToXML(user: User): void&lt;/div&gt;&lt;div&gt;+ saveUserToBinary(user: User): void&lt;/div&gt;" style="text;strokeColor=none;fillColor=none;align=left;verticalAlign=top;spacingLeft=4;spacingRight=4;overflow=hidden;rotatable=0;points=[[0,0.5],[1,0.5]];portConstraint=eastwest;whiteSpace=wrap;html=1;" vertex="1" parent="wdRhr8LuLfwhICCDwopB-22">
          <mxGeometry y="108" width="230" height="122" as="geometry" />
        </mxCell>
        <mxCell id="wdRhr8LuLfwhICCDwopB-26" value="TransaccionPersistance" style="swimlane;fontStyle=1;align=center;verticalAlign=top;childLayout=stackLayout;horizontal=1;startSize=26;horizontalStack=0;resizeParent=1;resizeParentMax=0;resizeLast=0;collapsible=1;marginBottom=0;whiteSpace=wrap;html=1;" vertex="1" parent="1">
          <mxGeometry x="3655" y="80" width="320" height="300" as="geometry" />
        </mxCell>
        <mxCell id="wdRhr8LuLfwhICCDwopB-27" value="&lt;div&gt;- TEXT_FILE_PATH: String&lt;/div&gt;&lt;div&gt;- XML_FILE_PATH: String&lt;/div&gt;&lt;div&gt;- BINARY_FILE_PATH: String&lt;/div&gt;&lt;div&gt;- SCHEDULED_TEXT_FILE_PATH: String&lt;/div&gt;" style="text;strokeColor=none;fillColor=none;align=left;verticalAlign=top;spacingLeft=4;spacingRight=4;overflow=hidden;rotatable=0;points=[[0,0.5],[1,0.5]];portConstraint=eastwest;whiteSpace=wrap;html=1;" vertex="1" parent="wdRhr8LuLfwhICCDwopB-26">
          <mxGeometry y="26" width="320" height="74" as="geometry" />
        </mxCell>
        <mxCell id="wdRhr8LuLfwhICCDwopB-28" value="" style="line;strokeWidth=1;fillColor=none;align=left;verticalAlign=middle;spacingTop=-1;spacingLeft=3;spacingRight=3;rotatable=0;labelPosition=right;points=[];portConstraint=eastwest;strokeColor=inherit;" vertex="1" parent="wdRhr8LuLfwhICCDwopB-26">
          <mxGeometry y="100" width="320" height="8" as="geometry" />
        </mxCell>
        <mxCell id="wdRhr8LuLfwhICCDwopB-29" value="&lt;div&gt;+ getInstance(): TransactionPersistence&lt;/div&gt;&lt;div&gt;+ saveAllTransactions(transactions: DoubleLinkedList&amp;lt;Transaction&amp;gt;): void&lt;/div&gt;&lt;div&gt;+ loadTransactions(): DoubleLinkedList&amp;lt;Transaction&amp;gt;&lt;/div&gt;&lt;div&gt;+ saveScheduledTransaction(scheduledTransaction: ScheduledTransaction): void&lt;/div&gt;&lt;div&gt;+ saveScheduledTransactions(scheduledTransactions: DoubleLinkedList&amp;lt;ScheduledTransaction&amp;gt;): void&lt;/div&gt;&lt;div&gt;+ loadScheduledTransactions(): DoubleLinkedList&amp;lt;ScheduledTransaction&amp;gt;&lt;/div&gt;&lt;div&gt;+ removeScheduledTransaction(transactionId: String): void&lt;/div&gt;" style="text;strokeColor=none;fillColor=none;align=left;verticalAlign=top;spacingLeft=4;spacingRight=4;overflow=hidden;rotatable=0;points=[[0,0.5],[1,0.5]];portConstraint=eastwest;whiteSpace=wrap;html=1;" vertex="1" parent="wdRhr8LuLfwhICCDwopB-26">
          <mxGeometry y="108" width="320" height="192" as="geometry" />
        </mxCell>
        <mxCell id="wdRhr8LuLfwhICCDwopB-31" style="edgeStyle=orthogonalEdgeStyle;rounded=0;orthogonalLoop=1;jettySize=auto;html=1;exitX=0.75;exitY=0;exitDx=0;exitDy=0;entryX=0.625;entryY=1;entryDx=0;entryDy=0;entryPerimeter=0;endArrow=none;startFill=0;" edge="1" parent="1" source="kNOtVhge8NMvpJqVgjMI-17" target="wdRhr8LuLfwhICCDwopB-29">
          <mxGeometry relative="1" as="geometry">
            <Array as="points">
              <mxPoint x="3795" y="460" />
              <mxPoint x="3845" y="460" />
              <mxPoint x="3845" y="383" />
              <mxPoint x="3855" y="383" />
            </Array>
          </mxGeometry>
        </mxCell>
        <mxCell id="wdRhr8LuLfwhICCDwopB-32" style="edgeStyle=orthogonalEdgeStyle;rounded=0;orthogonalLoop=1;jettySize=auto;html=1;exitX=0.75;exitY=0;exitDx=0;exitDy=0;entryX=0.492;entryY=1.047;entryDx=0;entryDy=0;entryPerimeter=0;endArrow=none;startFill=0;" edge="1" parent="1" source="kNOtVhge8NMvpJqVgjMI-13" target="wdRhr8LuLfwhICCDwopB-25">
          <mxGeometry relative="1" as="geometry">
            <Array as="points">
              <mxPoint x="3550" y="400" />
              <mxPoint x="3483" y="400" />
            </Array>
          </mxGeometry>
        </mxCell>
        <mxCell id="wdRhr8LuLfwhICCDwopB-33" style="edgeStyle=orthogonalEdgeStyle;rounded=0;orthogonalLoop=1;jettySize=auto;html=1;exitX=0.75;exitY=0;exitDx=0;exitDy=0;entryX=0.482;entryY=1.033;entryDx=0;entryDy=0;entryPerimeter=0;endArrow=none;startFill=0;" edge="1" parent="1" source="kNOtVhge8NMvpJqVgjMI-9" target="wdRhr8LuLfwhICCDwopB-21">
          <mxGeometry relative="1" as="geometry">
            <Array as="points">
              <mxPoint x="3317" y="390" />
              <mxPoint x="3226" y="390" />
            </Array>
          </mxGeometry>
        </mxCell>
        <mxCell id="wdRhr8LuLfwhICCDwopB-34" style="edgeStyle=orthogonalEdgeStyle;rounded=0;orthogonalLoop=1;jettySize=auto;html=1;exitX=0.618;exitY=-0.017;exitDx=0;exitDy=0;exitPerimeter=0;endArrow=diamond;endFill=0;" edge="1" parent="1" source="pKIrelrIvHtqwNI4XItX-52" target="kNOtVhge8NMvpJqVgjMI-4">
          <mxGeometry relative="1" as="geometry">
            <Array as="points">
              <mxPoint x="3136" y="910" />
              <mxPoint x="2895" y="910" />
            </Array>
          </mxGeometry>
        </mxCell>
        <mxCell id="wdRhr8LuLfwhICCDwopB-37" value="*" style="edgeLabel;html=1;align=center;verticalAlign=middle;resizable=0;points=[];fontSize=13;" vertex="1" connectable="0" parent="wdRhr8LuLfwhICCDwopB-34">
          <mxGeometry x="-0.9431" relative="1" as="geometry">
            <mxPoint x="9" y="14" as="offset" />
          </mxGeometry>
        </mxCell>
        <mxCell id="wdRhr8LuLfwhICCDwopB-40" value="1" style="edgeLabel;html=1;align=center;verticalAlign=middle;resizable=0;points=[];" connectable="0" vertex="1" parent="wdRhr8LuLfwhICCDwopB-34">
          <mxGeometry x="0.9506" y="2" relative="1" as="geometry">
            <mxPoint x="7" y="1" as="offset" />
          </mxGeometry>
        </mxCell>
        <mxCell id="wdRhr8LuLfwhICCDwopB-35" style="edgeStyle=orthogonalEdgeStyle;rounded=0;orthogonalLoop=1;jettySize=auto;html=1;exitX=0;exitY=0.5;exitDx=0;exitDy=0;endArrow=diamond;endFill=1;" edge="1" parent="1" source="pKIrelrIvHtqwNI4XItX-57">
          <mxGeometry relative="1" as="geometry">
            <mxPoint x="2883" y="860" as="targetPoint" />
            <Array as="points">
              <mxPoint x="2565" y="1458" />
              <mxPoint x="2565" y="1350" />
              <mxPoint x="2715" y="1350" />
              <mxPoint x="2715" y="910" />
              <mxPoint x="2883" y="910" />
            </Array>
          </mxGeometry>
        </mxCell>
        <mxCell id="wdRhr8LuLfwhICCDwopB-39" value="1" style="edgeLabel;html=1;align=center;verticalAlign=middle;resizable=0;points=[];" connectable="0" vertex="1" parent="wdRhr8LuLfwhICCDwopB-35">
          <mxGeometry x="0.9543" relative="1" as="geometry">
            <mxPoint x="-13" y="-2" as="offset" />
          </mxGeometry>
        </mxCell>
        <mxCell id="wdRhr8LuLfwhICCDwopB-42" style="edgeStyle=orthogonalEdgeStyle;rounded=0;orthogonalLoop=1;jettySize=auto;html=1;exitX=1;exitY=0.5;exitDx=0;exitDy=0;entryX=0.76;entryY=1;entryDx=0;entryDy=0;entryPerimeter=0;endArrow=diamond;endFill=1;" edge="1" parent="1" source="pKIrelrIvHtqwNI4XItX-66" target="kNOtVhge8NMvpJqVgjMI-4">
          <mxGeometry relative="1" as="geometry">
            <Array as="points">
              <mxPoint x="3270" y="1888" />
              <mxPoint x="3270" y="890" />
              <mxPoint x="2960" y="890" />
            </Array>
          </mxGeometry>
        </mxCell>
        <mxCell id="wdRhr8LuLfwhICCDwopB-43" value="1" style="edgeLabel;html=1;align=center;verticalAlign=middle;resizable=0;points=[];" connectable="0" vertex="1" parent="wdRhr8LuLfwhICCDwopB-42">
          <mxGeometry x="0.9794" y="4" relative="1" as="geometry">
            <mxPoint x="-6" y="5" as="offset" />
          </mxGeometry>
        </mxCell>
        <mxCell id="wdRhr8LuLfwhICCDwopB-44" value="*" style="edgeLabel;html=1;align=center;verticalAlign=middle;resizable=0;points=[];" connectable="0" vertex="1" parent="wdRhr8LuLfwhICCDwopB-42">
          <mxGeometry x="-0.9656" y="2" relative="1" as="geometry">
            <mxPoint x="-16" y="14" as="offset" />
          </mxGeometry>
        </mxCell>
        <mxCell id="wdRhr8LuLfwhICCDwopB-49" style="edgeStyle=orthogonalEdgeStyle;rounded=0;orthogonalLoop=1;jettySize=auto;html=1;exitX=0.5;exitY=0;exitDx=0;exitDy=0;startArrow=classic;startFill=1;endArrow=none;" edge="1" parent="1" source="wdRhr8LuLfwhICCDwopB-45" target="pKIrelrIvHtqwNI4XItX-68">
          <mxGeometry relative="1" as="geometry" />
        </mxCell>
        <mxCell id="wdRhr8LuLfwhICCDwopB-55" value="*" style="edgeLabel;html=1;align=center;verticalAlign=middle;resizable=0;points=[];" connectable="0" vertex="1" parent="wdRhr8LuLfwhICCDwopB-49">
          <mxGeometry x="-0.8965" y="-5" relative="1" as="geometry">
            <mxPoint x="5" y="9" as="offset" />
          </mxGeometry>
        </mxCell>
        <mxCell id="wdRhr8LuLfwhICCDwopB-56" value="1" style="edgeLabel;html=1;align=center;verticalAlign=middle;resizable=0;points=[];" connectable="0" vertex="1" parent="wdRhr8LuLfwhICCDwopB-49">
          <mxGeometry x="0.9346" y="3" relative="1" as="geometry">
            <mxPoint x="-5" y="9" as="offset" />
          </mxGeometry>
        </mxCell>
        <mxCell id="wdRhr8LuLfwhICCDwopB-45" value="Transaccion" style="swimlane;fontStyle=1;align=center;verticalAlign=top;childLayout=stackLayout;horizontal=1;startSize=26;horizontalStack=0;resizeParent=1;resizeParentMax=0;resizeLast=0;collapsible=1;marginBottom=0;whiteSpace=wrap;html=1;" vertex="1" parent="1">
          <mxGeometry x="3180" y="2340" width="240" height="328" as="geometry" />
        </mxCell>
        <mxCell id="wdRhr8LuLfwhICCDwopB-46" value="&lt;div&gt;- id: String&lt;/div&gt;&lt;div&gt;- userId: String&lt;/div&gt;&lt;div&gt;- walletId: String&lt;/div&gt;&lt;div&gt;- amount: double&lt;/div&gt;&lt;div&gt;- date: LocalDate&lt;/div&gt;&lt;div&gt;- type: TransactionType&lt;/div&gt;&lt;div&gt;- sourceAccountNumber: String&lt;/div&gt;&lt;div&gt;- destinationAccountNumber: String&lt;/div&gt;&lt;div&gt;- scheduledDate: LocalDateTime&lt;/div&gt;" style="text;strokeColor=none;fillColor=none;align=left;verticalAlign=top;spacingLeft=4;spacingRight=4;overflow=hidden;rotatable=0;points=[[0,0.5],[1,0.5]];portConstraint=eastwest;whiteSpace=wrap;html=1;" vertex="1" parent="wdRhr8LuLfwhICCDwopB-45">
          <mxGeometry y="26" width="240" height="144" as="geometry" />
        </mxCell>
        <mxCell id="wdRhr8LuLfwhICCDwopB-47" value="" style="line;strokeWidth=1;fillColor=none;align=left;verticalAlign=middle;spacingTop=-1;spacingLeft=3;spacingRight=3;rotatable=0;labelPosition=right;points=[];portConstraint=eastwest;strokeColor=inherit;" vertex="1" parent="wdRhr8LuLfwhICCDwopB-45">
          <mxGeometry y="170" width="240" height="8" as="geometry" />
        </mxCell>
        <mxCell id="wdRhr8LuLfwhICCDwopB-48" value="&lt;div&gt;+ getId(): String&lt;/div&gt;&lt;div&gt;+ getUserId(): String&lt;/div&gt;&lt;div&gt;+ getWalletId(): String&lt;/div&gt;&lt;div&gt;+ getAmount(): double&lt;/div&gt;&lt;div&gt;+ getDate(): LocalDate&lt;/div&gt;&lt;div&gt;+ getType(): TransactionType&lt;/div&gt;&lt;div&gt;+ getSourceAccountNumber(): String&lt;/div&gt;&lt;div&gt;+ getDestinationAccountNumber(): String&lt;/div&gt;&lt;div&gt;+ getScheduledDate(): LocalDateTime&lt;/div&gt;" style="text;strokeColor=none;fillColor=none;align=left;verticalAlign=top;spacingLeft=4;spacingRight=4;overflow=hidden;rotatable=0;points=[[0,0.5],[1,0.5]];portConstraint=eastwest;whiteSpace=wrap;html=1;" vertex="1" parent="wdRhr8LuLfwhICCDwopB-45">
          <mxGeometry y="178" width="240" height="150" as="geometry" />
        </mxCell>
        <mxCell id="wdRhr8LuLfwhICCDwopB-50" value="AccountType" style="swimlane;fontStyle=0;childLayout=stackLayout;horizontal=1;startSize=26;fillColor=none;horizontalStack=0;resizeParent=1;resizeParentMax=0;resizeLast=0;collapsible=1;marginBottom=0;whiteSpace=wrap;html=1;" vertex="1" parent="1">
          <mxGeometry x="2840" y="2280" width="140" height="90" as="geometry" />
        </mxCell>
        <mxCell id="wdRhr8LuLfwhICCDwopB-51" value="&lt;div&gt;&amp;nbsp; &amp;nbsp; AHORRO,&lt;/div&gt;&lt;div&gt;&amp;nbsp; &amp;nbsp; CORRIENTE&lt;/div&gt;" style="text;strokeColor=none;fillColor=none;align=left;verticalAlign=top;spacingLeft=4;spacingRight=4;overflow=hidden;rotatable=0;points=[[0,0.5],[1,0.5]];portConstraint=eastwest;whiteSpace=wrap;html=1;" vertex="1" parent="wdRhr8LuLfwhICCDwopB-50">
          <mxGeometry y="26" width="140" height="64" as="geometry" />
        </mxCell>
        <mxCell id="wdRhr8LuLfwhICCDwopB-54" style="edgeStyle=orthogonalEdgeStyle;rounded=0;orthogonalLoop=1;jettySize=auto;html=1;exitX=0.5;exitY=0;exitDx=0;exitDy=0;entryX=0.419;entryY=0.995;entryDx=0;entryDy=0;entryPerimeter=0;startArrow=classic;startFill=1;endArrow=none;" edge="1" parent="1" source="wdRhr8LuLfwhICCDwopB-50" target="pKIrelrIvHtqwNI4XItX-68">
          <mxGeometry relative="1" as="geometry">
            <Array as="points">
              <mxPoint x="2916" y="2260" />
            </Array>
          </mxGeometry>
        </mxCell>
        <mxCell id="wdRhr8LuLfwhICCDwopB-58" value="Wallet" style="swimlane;fontStyle=1;align=center;verticalAlign=top;childLayout=stackLayout;horizontal=1;startSize=26;horizontalStack=0;resizeParent=1;resizeParentMax=0;resizeLast=0;collapsible=1;marginBottom=0;whiteSpace=wrap;html=1;" vertex="1" parent="1">
          <mxGeometry x="2201" y="1500" width="280" height="358" as="geometry" />
        </mxCell>
        <mxCell id="wdRhr8LuLfwhICCDwopB-59" value="&lt;div&gt;- walletId: String&amp;nbsp;&amp;nbsp;&lt;/div&gt;&lt;div&gt;- userId: String&amp;nbsp;&amp;nbsp;&lt;/div&gt;&lt;div&gt;- name: String&amp;nbsp;&amp;nbsp;&lt;/div&gt;&lt;div&gt;- balance: double&amp;nbsp;&amp;nbsp;&lt;/div&gt;" style="text;strokeColor=none;fillColor=none;align=left;verticalAlign=top;spacingLeft=4;spacingRight=4;overflow=hidden;rotatable=0;points=[[0,0.5],[1,0.5]];portConstraint=eastwest;whiteSpace=wrap;html=1;" vertex="1" parent="wdRhr8LuLfwhICCDwopB-58">
          <mxGeometry y="26" width="280" height="74" as="geometry" />
        </mxCell>
        <mxCell id="wdRhr8LuLfwhICCDwopB-60" value="" style="line;strokeWidth=1;fillColor=none;align=left;verticalAlign=middle;spacingTop=-1;spacingLeft=3;spacingRight=3;rotatable=0;labelPosition=right;points=[];portConstraint=eastwest;strokeColor=inherit;" vertex="1" parent="wdRhr8LuLfwhICCDwopB-58">
          <mxGeometry y="100" width="280" height="8" as="geometry" />
        </mxCell>
        <mxCell id="wdRhr8LuLfwhICCDwopB-61" value="&lt;div&gt;+ getWalletId(): String&amp;nbsp;&amp;nbsp;&lt;/div&gt;&lt;div&gt;+ getUserId(): String&amp;nbsp;&amp;nbsp;&lt;/div&gt;&lt;div&gt;+ getName(): String&amp;nbsp;&amp;nbsp;&lt;/div&gt;&lt;div&gt;+ setName(name: String): void&amp;nbsp;&amp;nbsp;&lt;/div&gt;&lt;div&gt;+ getBalance(): double&amp;nbsp;&amp;nbsp;&lt;/div&gt;&lt;div&gt;+ updateBalance(): void&amp;nbsp;&amp;nbsp;&lt;/div&gt;&lt;div&gt;+ getAccounts(): SimpleList&amp;lt;Account&amp;gt;&amp;nbsp;&amp;nbsp;&lt;/div&gt;&lt;div&gt;+ getTransactions(): DoubleLinkedList&amp;lt;Transaction&amp;gt;&amp;nbsp;&amp;nbsp;&lt;/div&gt;&lt;div&gt;+ getScheduledTransactions(): PriorityQueue&amp;lt;ScheduledTransaction&amp;gt;&amp;nbsp;&amp;nbsp;&lt;/div&gt;&lt;div&gt;+ addAccount(account: Account): void&amp;nbsp;&amp;nbsp;&lt;/div&gt;&lt;div&gt;+ addTransaction(transaction: Transaction): void&amp;nbsp;&amp;nbsp;&lt;/div&gt;&lt;div&gt;+ scheduleTransaction(tx: ScheduledTransaction): void&lt;/div&gt;" style="text;strokeColor=none;fillColor=none;align=left;verticalAlign=top;spacingLeft=4;spacingRight=4;overflow=hidden;rotatable=0;points=[[0,0.5],[1,0.5]];portConstraint=eastwest;whiteSpace=wrap;html=1;" vertex="1" parent="wdRhr8LuLfwhICCDwopB-58">
          <mxGeometry y="108" width="280" height="250" as="geometry" />
        </mxCell>
        <mxCell id="wdRhr8LuLfwhICCDwopB-62" style="edgeStyle=orthogonalEdgeStyle;rounded=0;orthogonalLoop=1;jettySize=auto;html=1;exitX=0;exitY=0.5;exitDx=0;exitDy=0;entryX=1;entryY=0.5;entryDx=0;entryDy=0;" edge="1" parent="1" source="pKIrelrIvHtqwNI4XItX-59" target="wdRhr8LuLfwhICCDwopB-61">
          <mxGeometry relative="1" as="geometry" />
        </mxCell>
        <mxCell id="wdRhr8LuLfwhICCDwopB-63" value="*" style="edgeLabel;html=1;align=center;verticalAlign=middle;resizable=0;points=[];" connectable="0" vertex="1" parent="wdRhr8LuLfwhICCDwopB-62">
          <mxGeometry x="0.8908" y="-5" relative="1" as="geometry">
            <mxPoint x="-1" y="-8" as="offset" />
          </mxGeometry>
        </mxCell>
        <mxCell id="wdRhr8LuLfwhICCDwopB-64" value="1" style="edgeLabel;html=1;align=center;verticalAlign=middle;resizable=0;points=[];" connectable="0" vertex="1" parent="wdRhr8LuLfwhICCDwopB-62">
          <mxGeometry x="-0.8356" y="4" relative="1" as="geometry">
            <mxPoint x="6" y="8" as="offset" />
          </mxGeometry>
        </mxCell>
        <mxCell id="wdRhr8LuLfwhICCDwopB-65" value="TransaccionType" style="swimlane;fontStyle=0;childLayout=stackLayout;horizontal=1;startSize=26;fillColor=none;horizontalStack=0;resizeParent=1;resizeParentMax=0;resizeLast=0;collapsible=1;marginBottom=0;whiteSpace=wrap;html=1;" vertex="1" parent="1">
          <mxGeometry x="3510" y="2470" width="140" height="90" as="geometry" />
        </mxCell>
        <mxCell id="wdRhr8LuLfwhICCDwopB-68" value="&lt;div&gt;&amp;nbsp; &amp;nbsp; DEPOSITO,&lt;/div&gt;&lt;div&gt;&amp;nbsp; &amp;nbsp; RETIRO,&lt;/div&gt;&lt;div&gt;&amp;nbsp; &amp;nbsp; TRANSFERENCIA&lt;/div&gt;" style="text;strokeColor=none;fillColor=none;align=left;verticalAlign=top;spacingLeft=4;spacingRight=4;overflow=hidden;rotatable=0;points=[[0,0.5],[1,0.5]];portConstraint=eastwest;whiteSpace=wrap;html=1;" vertex="1" parent="wdRhr8LuLfwhICCDwopB-65">
          <mxGeometry y="26" width="140" height="64" as="geometry" />
        </mxCell>
        <mxCell id="wdRhr8LuLfwhICCDwopB-69" style="edgeStyle=orthogonalEdgeStyle;rounded=0;orthogonalLoop=1;jettySize=auto;html=1;exitX=1;exitY=0.5;exitDx=0;exitDy=0;entryX=0;entryY=0.5;entryDx=0;entryDy=0;" edge="1" parent="1" source="wdRhr8LuLfwhICCDwopB-46" target="wdRhr8LuLfwhICCDwopB-65">
          <mxGeometry relative="1" as="geometry" />
        </mxCell>
        <mxCell id="wdRhr8LuLfwhICCDwopB-70" value="UserPoints" style="swimlane;fontStyle=1;align=center;verticalAlign=top;childLayout=stackLayout;horizontal=1;startSize=26;horizontalStack=0;resizeParent=1;resizeParentMax=0;resizeLast=0;collapsible=1;marginBottom=0;whiteSpace=wrap;html=1;" vertex="1" parent="1">
          <mxGeometry x="2420" y="1980" width="160" height="188" as="geometry" />
        </mxCell>
        <mxCell id="wdRhr8LuLfwhICCDwopB-71" value="&lt;div&gt;- userId: String&amp;nbsp;&amp;nbsp;&lt;/div&gt;&lt;div&gt;- points: int&amp;nbsp;&amp;nbsp;&lt;/div&gt;" style="text;strokeColor=none;fillColor=none;align=left;verticalAlign=top;spacingLeft=4;spacingRight=4;overflow=hidden;rotatable=0;points=[[0,0.5],[1,0.5]];portConstraint=eastwest;whiteSpace=wrap;html=1;" vertex="1" parent="wdRhr8LuLfwhICCDwopB-70">
          <mxGeometry y="26" width="160" height="44" as="geometry" />
        </mxCell>
        <mxCell id="wdRhr8LuLfwhICCDwopB-72" value="" style="line;strokeWidth=1;fillColor=none;align=left;verticalAlign=middle;spacingTop=-1;spacingLeft=3;spacingRight=3;rotatable=0;labelPosition=right;points=[];portConstraint=eastwest;strokeColor=inherit;" vertex="1" parent="wdRhr8LuLfwhICCDwopB-70">
          <mxGeometry y="70" width="160" height="8" as="geometry" />
        </mxCell>
        <mxCell id="wdRhr8LuLfwhICCDwopB-73" value="&lt;div&gt;+ getUserId(): String&amp;nbsp;&amp;nbsp;&lt;/div&gt;&lt;div&gt;+ getPoints(): int&amp;nbsp;&amp;nbsp;&lt;/div&gt;&lt;div&gt;+ setPoints(points: int): void&amp;nbsp;&amp;nbsp;&lt;/div&gt;&lt;div&gt;+ compareTo(other: UserPoints): int&amp;nbsp;&amp;nbsp;&lt;/div&gt;" style="text;strokeColor=none;fillColor=none;align=left;verticalAlign=top;spacingLeft=4;spacingRight=4;overflow=hidden;rotatable=0;points=[[0,0.5],[1,0.5]];portConstraint=eastwest;whiteSpace=wrap;html=1;" vertex="1" parent="wdRhr8LuLfwhICCDwopB-70">
          <mxGeometry y="78" width="160" height="110" as="geometry" />
        </mxCell>
        <mxCell id="wdRhr8LuLfwhICCDwopB-74" style="edgeStyle=orthogonalEdgeStyle;rounded=0;orthogonalLoop=1;jettySize=auto;html=1;exitX=0.5;exitY=0;exitDx=0;exitDy=0;entryX=0.535;entryY=1.026;entryDx=0;entryDy=0;entryPerimeter=0;startArrow=classic;startFill=1;endArrow=none;" edge="1" parent="1" source="wdRhr8LuLfwhICCDwopB-70" target="pKIrelrIvHtqwNI4XItX-59">
          <mxGeometry relative="1" as="geometry">
            <Array as="points">
              <mxPoint x="2500" y="1940" />
              <mxPoint x="2520" y="1940" />
              <mxPoint x="2520" y="1780" />
              <mxPoint x="2776" y="1780" />
            </Array>
          </mxGeometry>
        </mxCell>
        <mxCell id="b4TjIw5Oxr2-o_FVGWAk-3" value="1" style="edgeLabel;html=1;align=center;verticalAlign=middle;resizable=0;points=[];" connectable="0" vertex="1" parent="wdRhr8LuLfwhICCDwopB-74">
          <mxGeometry x="0.9578" relative="1" as="geometry">
            <mxPoint x="14" as="offset" />
          </mxGeometry>
        </mxCell>
        <mxCell id="b4TjIw5Oxr2-o_FVGWAk-4" value="*" style="edgeLabel;html=1;align=center;verticalAlign=middle;resizable=0;points=[];" connectable="0" vertex="1" parent="wdRhr8LuLfwhICCDwopB-74">
          <mxGeometry x="-0.9385" y="-1" relative="1" as="geometry">
            <mxPoint x="9" y="-3" as="offset" />
          </mxGeometry>
        </mxCell>
        <mxCell id="wdRhr8LuLfwhICCDwopB-75" value="PointHistoryPersistence" style="swimlane;fontStyle=1;align=center;verticalAlign=top;childLayout=stackLayout;horizontal=1;startSize=26;horizontalStack=0;resizeParent=1;resizeParentMax=0;resizeLast=0;collapsible=1;marginBottom=0;whiteSpace=wrap;html=1;" vertex="1" parent="1">
          <mxGeometry x="2415" y="2260" width="190" height="200" as="geometry" />
        </mxCell>
        <mxCell id="wdRhr8LuLfwhICCDwopB-76" value="- BINARY_FILE_PATH: String&amp;nbsp;&amp;nbsp;" style="text;strokeColor=none;fillColor=none;align=left;verticalAlign=top;spacingLeft=4;spacingRight=4;overflow=hidden;rotatable=0;points=[[0,0.5],[1,0.5]];portConstraint=eastwest;whiteSpace=wrap;html=1;" vertex="1" parent="wdRhr8LuLfwhICCDwopB-75">
          <mxGeometry y="26" width="190" height="26" as="geometry" />
        </mxCell>
        <mxCell id="wdRhr8LuLfwhICCDwopB-77" value="" style="line;strokeWidth=1;fillColor=none;align=left;verticalAlign=middle;spacingTop=-1;spacingLeft=3;spacingRight=3;rotatable=0;labelPosition=right;points=[];portConstraint=eastwest;strokeColor=inherit;" vertex="1" parent="wdRhr8LuLfwhICCDwopB-75">
          <mxGeometry y="52" width="190" height="8" as="geometry" />
        </mxCell>
        <mxCell id="wdRhr8LuLfwhICCDwopB-78" value="&lt;div&gt;+ getInstance(): PointHistoryPersistence&amp;nbsp;&amp;nbsp;&lt;/div&gt;&lt;div&gt;+ saveAllPointHistory(history: SimpleList&amp;lt;PointHistoryEntry&amp;gt;): void&amp;nbsp;&amp;nbsp;&lt;/div&gt;&lt;div&gt;+ loadPointHistory(): SimpleList&amp;lt;PointHistoryEntry&amp;gt;&amp;nbsp;&amp;nbsp;&lt;/div&gt;" style="text;strokeColor=none;fillColor=none;align=left;verticalAlign=top;spacingLeft=4;spacingRight=4;overflow=hidden;rotatable=0;points=[[0,0.5],[1,0.5]];portConstraint=eastwest;whiteSpace=wrap;html=1;" vertex="1" parent="wdRhr8LuLfwhICCDwopB-75">
          <mxGeometry y="60" width="190" height="140" as="geometry" />
        </mxCell>
        <mxCell id="wdRhr8LuLfwhICCDwopB-80" style="edgeStyle=orthogonalEdgeStyle;rounded=0;orthogonalLoop=1;jettySize=auto;html=1;exitX=0.5;exitY=0;exitDx=0;exitDy=0;entryX=0.527;entryY=1.001;entryDx=0;entryDy=0;entryPerimeter=0;startArrow=classic;startFill=1;endArrow=none;" edge="1" parent="1" source="wdRhr8LuLfwhICCDwopB-75" target="wdRhr8LuLfwhICCDwopB-73">
          <mxGeometry relative="1" as="geometry" />
        </mxCell>
        <mxCell id="b4TjIw5Oxr2-o_FVGWAk-1" style="edgeStyle=orthogonalEdgeStyle;rounded=0;orthogonalLoop=1;jettySize=auto;html=1;exitX=0.5;exitY=1;exitDx=0;exitDy=0;entryX=0.489;entryY=0.998;entryDx=0;entryDy=0;entryPerimeter=0;startArrow=block;startFill=0;endArrow=none;endFill=1;dashed=1;" edge="1" parent="1" source="kNOtVhge8NMvpJqVgjMI-25" target="kNOtVhge8NMvpJqVgjMI-16">
          <mxGeometry relative="1" as="geometry" />
        </mxCell>
        <mxCell id="b4TjIw5Oxr2-o_FVGWAk-2" style="edgeStyle=orthogonalEdgeStyle;rounded=0;orthogonalLoop=1;jettySize=auto;html=1;exitX=0.75;exitY=1;exitDx=0;exitDy=0;entryX=0.522;entryY=1.007;entryDx=0;entryDy=0;entryPerimeter=0;startArrow=block;startFill=0;endArrow=none;dashed=1;" edge="1" parent="1" source="kNOtVhge8NMvpJqVgjMI-25" target="kNOtVhge8NMvpJqVgjMI-12">
          <mxGeometry relative="1" as="geometry">
            <Array as="points">
              <mxPoint x="4303" y="910" />
              <mxPoint x="3300" y="910" />
              <mxPoint x="3300" y="750" />
              <mxPoint x="3270" y="750" />
            </Array>
          </mxGeometry>
        </mxCell>
      </root>
    </mxGraphModel>
  </diagram>
</mxfile>
